<?xml version="1.0" encoding="UTF-8"?>
<!-- Generator: visioncortex VTracer -->
<svg id="svg" version="1.1" xmlns="http://www.w3.org/2000/svg" viewBox="0 0 1508 1662" style="display: block;"><path d="M0 0 C2.06894531 -0.06703125 4.13789062 -0.1340625 6.26953125 -0.203125 C8.42871094 -0.23921875 10.58789062 -0.2753125 12.8125 -0.3125 C15.13925781 -0.30347656 17.46601562 -0.29445313 19.86328125 -0.28515625 C22.54839844 -0.19105469 25.23351562 -0.09695312 28 0 C29.65821777 0.10973145 31.31643555 0.21946289 33.02490234 0.33251953 C34.80461426 0.47157715 36.58432617 0.61063477 38.41796875 0.75390625 C40.24803467 0.9135083 42.07810059 1.07311035 43.96362305 1.23754883 C45.79062744 1.40665771 47.61763184 1.5757666 49.5 1.75 C51.22581299 1.90686279 52.95162598 2.06372559 54.72973633 2.2253418 C56.41736084 2.39332275 58.10498535 2.56130371 59.84375 2.734375 C61.51332764 2.92128906 63.18290527 3.10820312 64.90307617 3.30078125 C66.58506104 3.53152344 68.2670459 3.76226563 70 4 C72.65929565 4.48533203 72.65929565 4.48533203 75.37231445 4.98046875 C77.112146 5.33238281 78.85197754 5.68429688 80.64453125 6.046875 C83.73183594 6.69140625 86.81914063 7.3359375 90 8 C91.89105469 8.2990625 93.78210937 8.598125 95.73046875 8.90625 C97.93669922 9.20015625 97.93669922 9.20015625 100.1875 9.5 C103.425625 9.995 106.66375 10.49 110 11 C112.805 11.639375 115.61 12.27875 118.5 12.9375 C121.305 13.618125 124.11 14.29875 127 15 C128.70027344 15.35449219 130.40054688 15.70898438 132.15234375 16.07421875 C133.89644531 16.42097656 135.64054687 16.76773438 137.4375 17.125 C142.1709375 18.053125 142.1709375 18.053125 147 19 C148.74410156 19.350625 150.48820312 19.70125 152.28515625 20.0625 C154.61900391 20.5265625 154.61900391 20.5265625 157 21 C159.475 21.433125 159.475 21.433125 162 21.875 C164.475 22.431875 164.475 22.431875 167 23 C168.85625 23.66 170.7125 24.32 172.625 25 C174.06875 25.66 175.5125 26.32 177 27 C177 27.66 177 28.32 177 29 C178.32 28.67 179.64 28.34 181 28 C182.65515625 28.50144531 184.3103125 29.00289062 186.015625 29.51953125 C189.10164063 30.65455078 189.10164063 30.65455078 192.25 31.8125 C194.49554687 32.64394531 196.74109375 33.47539063 199.0546875 34.33203125 C201.34664062 35.21246094 203.63859375 36.09289063 206 37 C209.12855469 38.24330078 209.12855469 38.24330078 212.3203125 39.51171875 C214.31835938 40.33285156 216.31640625 41.15398438 218.375 42 C221.31599609 43.24910156 221.31599609 43.24910156 224.31640625 44.5234375 C226.19199219 45.34070313 228.06757812 46.15796875 230 47 C232.64322266 48.16402344 232.64322266 48.16402344 235.33984375 49.3515625 C236.98082031 50.10179687 238.62179687 50.85203125 240.3125 51.625 C243.179375 53.06875 246.04625 54.5125 249 56 C250.959375 57.381875 252.91875 58.76375 254.9375 60.1875 C257.4434375 62.0746875 257.4434375 62.0746875 260 64 C261.918125 64.99 263.83625 65.98 265.8125 67 C267.854375 67.99 269.89625 68.98 272 70 C275.279375 71.7634375 275.279375 71.7634375 278.625 73.5625 C281.05875 75.026875 283.4925 76.49125 286 78 C287.49789063 79.02996094 288.99578125 80.05992188 290.5390625 81.12109375 C292.09367187 82.23613281 293.64828125 83.35117188 295.25 84.5 C297.54130859 86.18222656 297.54130859 86.18222656 299.87890625 87.8984375 C301.23886719 88.92195313 302.59882812 89.94546875 304 91 C306.5678125 93.041875 306.5678125 93.041875 309.1875 95.125 C311.5696875 97.043125 311.5696875 97.043125 314 99 C315.29808594 99.94359375 316.59617187 100.8871875 317.93359375 101.859375 C319.31675781 102.85453125 320.69992187 103.8496875 322.125 104.875 C325.528125 107.411875 325.528125 107.411875 329 110 C329 110.66 329 111.32 329 112 C330.65 112.66 332.3 113.32 334 114 C336.248125 115.546875 338.49625 117.09375 340.8125 118.6875 C343.184375 120.440625 345.55625 122.19375 348 124 C349.44375 125.216875 350.8875 126.43375 352.375 127.6875 C354.169375 129.3271875 354.169375 129.3271875 356 131 C357.27875 132.11375 358.5575 133.2275 359.875 134.375 C361.23625 135.57125 362.5975 136.7675 364 138 C366.5678125 140.289375 366.5678125 140.289375 369.1875 142.625 C371.5696875 144.790625 371.5696875 144.790625 374 147 C375.65 148.65 377.3 150.3 379 152 C380.918125 154.165625 380.918125 154.165625 382.875 156.375 C384.56625 158.23125 386.2575 160.0875 388 162 C389.23492188 163.25683594 390.46984375 164.51367188 391.7421875 165.80859375 C393.06476563 167.12988281 394.38734375 168.45117188 395.75 169.8125 C397.00296875 171.05644531 398.2559375 172.30039063 399.546875 173.58203125 C400.68640625 174.70996094 401.8259375 175.83789062 403 177 C404.65 178.65 406.3 180.3 408 182 C411.465 185.465 411.465 185.465 415 189 C416.65 191.10375 418.3 193.2075 420 195.375 C421.65 197.56125 423.3 199.7475 425 202 C426.175625 203.505625 427.35125 205.01125 428.5625 206.5625 C429.696875 208.026875 430.83125 209.49125 432 211 C433.485 212.959375 434.97 214.91875 436.5 216.9375 C437.985 218.938125 439.47 220.93875 441 223 C442.175625 224.69125 443.35125 226.3825 444.5625 228.125 C445.696875 229.73375 446.83125 231.3425 448 233 C449.381875 234.711875 450.76375 236.42375 452.1875 238.1875 C453.445625 239.775625 454.70375 241.36375 456 243 C457.32 245.31 458.64 247.62 460 250 C461.65 252.64 463.3 255.28 465 258 C467.97 260.97 467.97 260.97 471 264 C472.340625 266.619375 473.68125 269.23875 475.0625 271.9375 C476.361875 274.598125 477.66125 277.25875 479 280 C480.65 282.31 482.3 284.62 484 287 C484.66 288.65 485.32 290.3 486 292 C487.32 293.98 488.64 295.96 490 298 C490.85335938 299.65644531 491.70671875 301.31289063 492.5859375 303.01953125 C493.96652344 305.88705078 493.96652344 305.88705078 495.375 308.8125 C496.34824219 310.87113281 497.32148437 312.92976563 498.32421875 315.05078125 C499.64873047 317.99564453 499.64873047 317.99564453 501 321 C502.051875 323.805 503.10375 326.61 504.1875 329.5 C505.115625 332.305 506.04375 335.11 507 338 C508.02287109 340.87525391 508.02287109 340.87525391 509.06640625 343.80859375 C509.78699219 345.83113281 510.50757813 347.85367187 511.25 349.9375 C511.91515625 351.80277344 512.5803125 353.66804688 513.265625 355.58984375 C513.83796875 357.37519531 514.4103125 359.16054688 515 361 C515.30421875 362.56878906 515.6084375 364.13757813 515.921875 365.75390625 C516.27765625 367.48511719 516.6334375 369.21632813 517 371 C517.78117187 373.34222656 518.56234375 375.68445313 519.3671875 378.09765625 C520.23601562 380.70542969 521.10484375 383.31320312 522 386 C522.70382812 388.67996094 523.40765625 391.35992187 524.1328125 394.12109375 C524.79023437 396.86550781 525.44765625 399.60992187 526.125 402.4375 C527.11886719 406.55025391 527.11886719 406.55025391 528.1328125 410.74609375 C529.05707031 414.83177734 529.05707031 414.83177734 530 419 C530.80050781 423.17269531 530.80050781 423.17269531 531.6171875 427.4296875 C532.07351563 429.92789062 532.52984375 432.42609375 533 435 C533.66 438.196875 534.32 441.39375 535 444.6875 C535.33902344 446.37359375 535.67804688 448.0596875 536.02734375 449.796875 C536.34832031 451.51390625 536.66929688 453.2309375 537 455 C537.26941406 456.71703125 537.53882813 458.4340625 537.81640625 460.203125 C538.06261719 461.93046875 538.30882812 463.6578125 538.5625 465.4375 C538.79582031 467.16355469 539.02914063 468.88960938 539.26953125 470.66796875 C539.51058594 472.42753906 539.75164062 474.18710937 540 476 C540.29261719 477.87300781 540.58523438 479.74601562 540.88671875 481.67578125 C541.31404297 484.43501953 541.31404297 484.43501953 541.75 487.25 C542.1625 490.4675 542.575 493.685 543 497 C542.67 499.97 542.34 502.94 542 506 C541.98759277 508.11809082 541.97518555 510.23618164 541.96240234 512.41845703 C542.00316895 514.84044434 542.04393555 517.26243164 542.0859375 519.7578125 C542.12976562 522.40425781 542.17359375 525.05070313 542.21875 527.77734375 C542.2703125 530.53207031 542.321875 533.28679688 542.375 536.125 C542.41882812 538.88746094 542.46265625 541.64992188 542.5078125 544.49609375 C542.55421875 547.13996094 542.600625 549.78382813 542.6484375 552.5078125 C542.69145996 554.92754395 542.73448242 557.34727539 542.77880859 559.84033203 C542.85180176 561.87302246 542.92479492 563.90571289 543 566 C543.33 568.31 543.66 570.62 544 573 C544.06251953 574.93770264 544.12503906 576.87540527 544.18945312 578.87182617 C544.21974609 581.15580322 544.25003906 583.43978027 544.28125 585.79296875 C544.31863281 588.27892578 544.35601563 590.76488281 544.39453125 593.32617188 C544.42933594 595.92041016 544.46414063 598.51464844 544.5 601.1875 C544.53480469 603.79333984 544.56960938 606.39917969 544.60546875 609.08398438 C544.66154297 612.80711914 544.66154297 612.80711914 544.71875 616.60546875 C544.74904297 618.88606201 544.77933594 621.16665527 544.81054688 623.51635742 C544.87306641 625.32595947 544.93558594 627.13556152 545 629 C545.33 630.32 545.66 631.64 546 633 C545.96003906 635.43246094 545.92007812 637.86492188 545.87890625 640.37109375 C545.77449219 643.36300781 545.67007812 646.35492187 545.5625 649.4375 C545.46066406 652.40621094 545.35882812 655.37492188 545.25390625 658.43359375 C545.12822266 662.67396484 545.12822266 662.67396484 545 667 C544.99613281 669.10632813 544.99226563 671.21265625 544.98828125 673.3828125 C544.99408203 676.65832031 544.99408203 676.65832031 545 680 C544.95101563 683.07183594 544.90203125 686.14367187 544.8515625 689.30859375 C544.81546875 690.96310547 544.779375 692.61761719 544.7421875 694.32226562 C544.70351562 696.01029297 544.66484375 697.69832031 544.625 699.4375 C544.5940625 701.12166016 544.563125 702.80582031 544.53125 704.54101562 C544.49257812 706.19681641 544.45390625 707.85261719 544.4140625 709.55859375 C544.27742188 712.67425781 544.14078125 715.78992188 544 719 C543.67386719 721.48660156 543.34773438 723.97320313 543.01171875 726.53515625 C542.67785156 728.66855469 542.34398437 730.80195312 542 733 C541.84917969 734.815 541.69835938 736.63 541.54296875 738.5 C541.42566406 740.315 541.30835938 742.13 541.1875 744 C541.01863281 746.17207031 540.84976562 748.34414063 540.67578125 750.58203125 C540.45277344 753.02996094 540.22976563 755.47789062 540 758 C539.68417969 760.78824219 539.36835937 763.57648437 539.04296875 766.44921875 C538.65753906 769.49785156 538.27210937 772.54648437 537.875 775.6875 C537.44058594 778.91402344 537.00617188 782.14054688 536.55859375 785.46484375 C536.19290283 788.01114502 536.19290283 788.01114502 535.81982422 790.60888672 C535.54928223 792.3879541 535.27874023 794.16702148 535 796 C534.53037842 798.86389404 534.53037842 798.86389404 534.05126953 801.78564453 C533.71595215 803.7551709 533.38063477 805.72469727 533.03515625 807.75390625 C532.69145996 809.73447021 532.34776367 811.71503418 531.99365234 813.75561523 C531.47085693 816.72283569 531.47085693 816.72283569 530.9375 819.75 C530.41470459 822.68918335 530.41470459 822.68918335 529.88134766 825.68774414 C529.3735376 828.53774048 529.3735376 828.53774048 528.85546875 831.4453125 C528.53239746 833.26321289 528.20932617 835.08111328 527.87646484 836.95410156 C527.44261475 839.45182129 527.44261475 839.45182129 527 842 C526.58363281 844.63742187 526.16726563 847.27484375 525.73828125 849.9921875 C525.41214844 852.18101562 525.08601563 854.36984375 524.75 856.625 C524.45609375 858.58566406 524.1621875 860.54632812 523.859375 862.56640625 C523.57578125 864.35949219 523.2921875 866.15257812 523 868 C522.67515625 869.78277344 522.3503125 871.56554687 522.015625 873.40234375 C521.68046875 875.10519531 521.3453125 876.80804687 521 878.5625 C520.34 881.676875 519.68 884.79125 519 888 C518.34 890.8875 517.68 893.775 517 896.75 C516.34 899.4725 515.68 902.195 515 905 C514.401875 907.3925 513.80375 909.785 513.1875 912.25 C512.465625 915.1375 511.74375 918.025 511 921 C510.484375 923.18109375 509.96875 925.3621875 509.4375 927.609375 C508.86 930.04828125 508.2825 932.4871875 507.6875 935 C507.08679687 937.50207031 506.48609375 940.00414062 505.8671875 942.58203125 C505.25101563 945.02996094 504.63484375 947.47789062 504 950 C503.38382813 952.16949219 502.76765625 954.33898437 502.1328125 956.57421875 C501.53210937 958.59160156 500.93140625 960.60898437 500.3125 962.6875 C499.77238281 964.44449219 499.23226563 966.20148437 498.67578125 968.01171875 C497.84626953 970.97591797 497.84626953 970.97591797 497 974 C496.07380859 978.22296875 496.07380859 978.22296875 495.12890625 982.53125 C494.42636719 985.6559375 493.72382812 988.780625 493 992 C492.14664062 995.10019531 491.29328125 998.20039062 490.4140625 1001.39453125 C489.49367188 1004.50246094 488.57328125 1007.61039063 487.625 1010.8125 C486.70976563 1013.93332031 485.79453125 1017.05414062 484.8515625 1020.26953125 C483.91054687 1023.15058594 482.96953125 1026.03164062 482 1029 C481.06671875 1031.01867188 480.1334375 1033.03734375 479.171875 1035.1171875 C478.12515625 1037.38851563 477.0784375 1039.65984375 476 1042 C475.0406958 1044.64213501 475.0406958 1044.64213501 474.06201172 1047.33764648 C473.37381348 1049.34673096 472.68561523 1051.35581543 471.9765625 1053.42578125 C471.265 1055.52244141 470.5534375 1057.61910156 469.8203125 1059.77929688 C469.09585937 1061.93525391 468.37140625 1064.09121094 467.625 1066.3125 C466.90828125 1068.45685547 466.1915625 1070.60121094 465.453125 1072.81054688 C464.38191406 1075.96133789 464.38191406 1075.96133789 463.2890625 1079.17578125 C462.57532471 1081.21628662 461.86158691 1083.25679199 461.1262207 1085.35913086 C460.42456787 1087.22061768 459.72291504 1089.08210449 459 1091 C457.66582031 1093.81273437 456.33164063 1096.62546875 454.95703125 1099.5234375 C453.65121094 1101.99070312 452.34539062 1104.45796875 451 1107 C449.69160156 1109.67738281 448.38320312 1112.35476563 447.03515625 1115.11328125 C445.06869141 1119.17189453 445.06869141 1119.17189453 443.0625 1123.3125 C440.98388672 1127.59927734 440.98388672 1127.59927734 438.86328125 1131.97265625 C437.58839844 1134.62167969 436.31351563 1137.27070312 435 1140 C434.04480469 1142.04058594 433.08960938 1144.08117188 432.10546875 1146.18359375 C431.32816406 1147.85550781 430.55085938 1149.52742188 429.75 1151.25 C428.5125 1153.8075 427.275 1156.365 426 1159 C424.68 1160.65 423.36 1162.3 422 1164 C419.69 1164.99 417.38 1165.98 415 1167 C413.05738281 1167.1340625 411.11476563 1167.268125 409.11328125 1167.40625 C406.86902344 1167.4371875 404.62476563 1167.468125 402.3125 1167.5 C399.90453125 1167.56316406 397.4965625 1167.62632813 395.015625 1167.69140625 C392.70046875 1167.79324219 390.3853125 1167.89507813 388 1168 C386.17984375 1168.21527344 384.3596875 1168.43054687 382.484375 1168.65234375 C380.86015625 1168.91144531 379.2359375 1169.17054687 377.5625 1169.4375 C374.406875 1169.953125 371.25125 1170.46875 368 1171 C365.02355469 1171.33257813 362.04710937 1171.66515625 358.98046875 1172.0078125 C357.23693115 1172.17692139 355.49339355 1172.34603027 353.69702148 1172.52026367 C351.81700439 1172.67857666 349.9369873 1172.83688965 348 1173 C346.00590088 1173.12930908 344.01180176 1173.25861816 341.95727539 1173.3918457 C339.88309326 1173.50874756 337.80891113 1173.62564941 335.671875 1173.74609375 C333.55265625 1173.86146484 331.4334375 1173.97683594 329.25 1174.09570312 C327.105 1174.20849609 324.96 1174.32128906 322.75 1174.4375 C319.50929688 1174.60088867 319.50929688 1174.60088867 316.203125 1174.76757812 C313.03203125 1174.94256836 313.03203125 1174.94256836 309.796875 1175.12109375 C306.76016602 1175.30841064 306.76016602 1175.30841064 303.66210938 1175.49951172 C301.79361328 1175.66467285 299.92511719 1175.82983398 298 1176 C294.97328125 1176.54785156 291.9465625 1177.09570312 288.828125 1177.66015625 C286.57484375 1178.10230469 284.3215625 1178.54445313 282 1179 C280.02 1178.67 278.04 1178.34 276 1178 C274.68 1176.02 273.36 1174.04 272 1172 C271.71125 1170.55625 271.4225 1169.1125 271.125 1167.625 C271.063125 1164.840625 271.063125 1164.840625 271 1162 C271.32355469 1159.60621094 271.64710937 1157.21242188 271.98046875 1154.74609375 C272.48513672 1150.41677734 272.48513672 1150.41677734 273 1146 C273.07605469 1143.11121094 273.15210938 1140.22242188 273.23046875 1137.24609375 C273.21628906 1134.33925781 273.20210937 1131.43242188 273.1875 1128.4375 C273.18105469 1125.50746094 273.17460938 1122.57742188 273.16796875 1119.55859375 C273.11253906 1117.06425781 273.05710937 1114.56992188 273 1112 C272.67 1109.69 272.34 1107.38 272 1105 C272.12117188 1101.97972656 272.24234375 1098.95945312 272.3671875 1095.84765625 C272.44710938 1094.10162109 272.52703125 1092.35558594 272.609375 1090.55664062 C272.74085938 1087.83704102 272.74085938 1087.83704102 272.875 1085.0625 C273.04128906 1082.34870117 273.04128906 1082.34870117 273.2109375 1079.58007812 C273.283125 1077.83275391 273.3553125 1076.08542969 273.4296875 1074.28515625 C273.21699219 1069.68900391 273.21699219 1069.68900391 273 1065 C271.93910156 1063.32679687 270.87820313 1061.65359375 269.78515625 1059.9296875 C268.53605469 1058.96289062 267.28695313 1057.99609375 266 1057 C264.535625 1056.030625 263.07125 1055.06125 261.5625 1054.0625 C259.726875 1052.721875 257.89125 1051.38125 256 1050 C254.06060547 1048.0509375 254.06060547 1048.0509375 252.08203125 1046.0625 C250.69371094 1044.5775 249.30539062 1043.0925 247.875 1041.5625 C245.92207031 1039.42974609 245.92207031 1039.42974609 243.9296875 1037.25390625 C242.63289063 1035.85011719 241.33609375 1034.44632813 240 1033 C237.88078125 1030.87304688 237.88078125 1030.87304688 235.71875 1028.703125 C234.4915625 1027.48109375 233.264375 1026.2590625 232 1025 C230.88625 1023.741875 229.7725 1022.48375 228.625 1021.1875 C227.42875 1019.805625 226.2325 1018.42375 225 1017 C222.4940625 1014.0609375 222.4940625 1014.0609375 219.9375 1011.0625 C218.308125 1009.391875 216.67875 1007.72125 215 1006 C213.02 1005.67 211.04 1005.34 209 1005 C207.411875 1005.78375 205.82375 1006.5675 204.1875 1007.375 C202.145625 1008.57125 200.10375 1009.7675 198 1011 C195.40125 1012.423125 192.8025 1013.84625 190.125 1015.3125 C188.6709375 1016.08207031 187.216875 1016.85164063 185.71875 1017.64453125 C184.1615625 1018.42183594 182.604375 1019.19914062 181 1020 C179.3190625 1020.74636719 177.638125 1021.49273438 175.90625 1022.26171875 C173.29203125 1023.36966797 173.29203125 1023.36966797 170.625 1024.5 C168.83964844 1025.24894531 167.05429688 1025.99789063 165.21484375 1026.76953125 C162.63349609 1027.87361328 162.63349609 1027.87361328 160 1029 C155.6378125 1031.0728125 155.6378125 1031.0728125 151.1875 1033.1875 C149.6509375 1033.92226562 148.114375 1034.65703125 146.53125 1035.4140625 C144.7059375 1036.26742188 142.880625 1037.12078125 141 1038 C138.5146875 1039.12148437 136.029375 1040.24296875 133.46875 1041.3984375 C130.7359375 1042.60757812 128.003125 1043.81671875 125.1875 1045.0625 C121.0728125 1046.856875 121.0728125 1046.856875 116.875 1048.6875 C114.27625 1049.780625 111.6775 1050.87375 109 1052 C106.834375 1052.825 104.66875 1053.65 102.4375 1054.5 C100.54 1055.180625 98.6425 1055.86125 96.6875 1056.5625 C94.08681641 1057.47322266 94.08681641 1057.47322266 91.43359375 1058.40234375 C89.97050781 1058.92957031 88.50742188 1059.45679688 87 1060 C84.15375 1061.299375 84.15375 1061.299375 81.25 1062.625 C79.5175 1063.40875 77.785 1064.1925 76 1065 C73.421875 1065.94875 70.84375 1066.8975 68.1875 1067.875 C66.66382813 1068.37257813 65.14015625 1068.87015625 63.5703125 1069.3828125 C60.81300781 1070.18332031 60.81300781 1070.18332031 58 1071 C55.54304687 1071.61617187 53.08609375 1072.23234375 50.5546875 1072.8671875 C46.59855469 1073.79917969 46.59855469 1073.79917969 42.5625 1074.75 C40.06816406 1075.32234375 37.57382812 1075.8946875 35.00390625 1076.484375 C32.69261719 1076.98453125 30.38132812 1077.4846875 28 1078 C26.09089844 1078.37125 24.18179688 1078.7425 22.21484375 1079.125 C20.49394531 1079.41375 18.77304687 1079.7025 17 1080 C15.30875 1080.23203125 13.6175 1080.4640625 11.875 1080.703125 C10.26625 1080.88359375 8.6575 1081.0640625 7 1081.25 C2.545 1081.62125 2.545 1081.62125 -2 1082 C-2.99 1081.34 -3.98 1080.68 -5 1080 C-5.55558594 1078.25589844 -6.11117187 1076.51179688 -6.68359375 1074.71484375 C-7.26238281 1072.47832031 -7.84117187 1070.24179688 -8.4375 1067.9375 C-9.04851563 1065.58496094 -9.65953125 1063.23242188 -10.2890625 1060.80859375 C-10.85367188 1058.56175781 -11.41828125 1056.31492187 -12 1054 C-12.763125 1050.865 -13.52625 1047.73 -14.3125 1044.5 C-14.869375 1042.025 -15.42625 1039.55 -16 1037 C-16.47566406 1034.59847656 -16.47566406 1034.59847656 -16.9609375 1032.1484375 C-17.47527344 1029.59996094 -17.47527344 1029.59996094 -18 1027 C-18.36738281 1025.39382813 -18.73476563 1023.78765625 -19.11328125 1022.1328125 C-19.70689453 1019.65394531 -19.70689453 1019.65394531 -20.3125 1017.125 C-20.74691406 1015.30871094 -21.18132813 1013.49242187 -21.62890625 1011.62109375 C-22.08136719 1009.76613281 -22.53382813 1007.91117188 -23 1006 C-23.46277344 1004.17597656 -23.92554688 1002.35195313 -24.40234375 1000.47265625 C-24.84707031 998.72855469 -25.29179688 996.98445312 -25.75 995.1875 C-26.4925 992.155625 -27.235 989.12375 -28 986 C-28.33 983.36 -28.66 980.72 -29 978 C-29.62390625 975.256875 -30.2478125 972.51375 -30.890625 969.6875 C-31.66921875 966.490625 -32.4478125 963.29375 -33.25 960 C-34.40242187 955.235625 -34.40242187 955.235625 -35.578125 950.375 C-36.37734375 947.28125 -37.1765625 944.1875 -38 941 C-39.35351562 936.483125 -39.35351562 936.483125 -40.734375 931.875 C-41.85585937 928.471875 -41.85585937 928.471875 -43 925 C-43.33 924.67 -43.66 924.34 -44 924 C-44.4125 921.710625 -44.825 919.42125 -45.25 917.0625 C-46.11625 912.5765625 -46.11625 912.5765625 -47 908 C-47.804375 905.03 -48.60875 902.06 -49.4375 899 C-50.283125 896.03 -51.12875 893.06 -52 890 C-52.680625 887.256875 -53.36125 884.51375 -54.0625 881.6875 C-55.0215625 877.8821875 -55.0215625 877.8821875 -56 874 C-56.66 871.793125 -57.32 869.58625 -58 867.3125 C-58.66 865.229375 -59.32 863.14625 -60 861 C-60.87011719 858.12667969 -60.87011719 858.12667969 -61.7578125 855.1953125 C-62.49773438 852.82085938 -63.23765625 850.44640625 -64 848 C-64.92554688 845.23753906 -65.85109375 842.47507812 -66.8046875 839.62890625 C-67.81789063 836.63699219 -68.83109375 833.64507813 -69.875 830.5625 C-70.67345337 828.1959021 -70.67345337 828.1959021 -71.48803711 825.78149414 C-72.01405518 824.2061792 -72.54007324 822.63086426 -73.08203125 821.0078125 C-74.04496094 818.03523437 -75.00789062 815.06265625 -76 812 C-76.66386719 809.64617188 -77.32773437 807.29234375 -78.01171875 804.8671875 C-78.52347656 802.91039062 -79.03523437 800.95359375 -79.5625 798.9375 C-80.366875 795.988125 -81.17125 793.03875 -82 790 C-82.99 789.01 -83.98 788.02 -85 787 C-88.3 787 -91.6 787 -95 787 C-96.76859375 787.19335938 -98.5371875 787.38671875 -100.359375 787.5859375 C-102.13828125 787.84632813 -103.9171875 788.10671875 -105.75 788.375 C-107.53921875 788.63023437 -109.3284375 788.88546875 -111.171875 789.1484375 C-112.76515625 789.42945313 -114.3584375 789.71046875 -116 790 C-117.98 790.66 -119.96 791.32 -122 792 C-124.97 792 -127.94 792 -131 792 C-133.31 792.66 -135.62 793.32 -138 794 C-140.42214844 794.4021875 -142.84429688 794.804375 -145.33984375 795.21875 C-148.17707031 795.6415625 -151.01429688 796.064375 -153.9375 796.5 C-156.75152344 796.9228125 -159.56554687 797.345625 -162.46484375 797.78125 C-165.28144531 798.1834375 -168.09804688 798.585625 -171 799 C-175.27130859 799.51046875 -175.27130859 799.51046875 -179.62890625 800.03125 C-183.27759766 800.51078125 -183.27759766 800.51078125 -187 801 C-189.31 801.66 -191.62 802.32 -194 803 C-196.206875 803.165 -198.41375 803.33 -200.6875 803.5 C-202.770625 803.665 -204.85375 803.83 -207 804 C-208.32 804.66 -209.64 805.32 -211 806 C-212.32 806 -213.64 806 -215 806 C-215.969375 803.89625 -216.93875 801.7925 -217.9375 799.625 C-218.948125 796.77875 -219.95875 793.9325 -221 791 C-221.845625 788.1125 -222.69125 785.225 -223.5625 782.25 C-224.366875 779.1975 -225.17125 776.145 -226 773 C-226.43441406 771.36732178 -226.86882813 769.73464355 -227.31640625 768.05249023 C-227.74824219 766.42512939 -228.18007813 764.79776855 -228.625 763.12109375 C-229.40875 760.11113281 -230.1925 757.10117187 -231 754 C-231.53625 751.86660156 -232.0725 749.73320313 -232.625 747.53515625 C-233.07875 745.72917969 -233.5325 743.92320312 -234 742.0625 C-234.45246094 740.30679688 -234.90492188 738.55109375 -235.37109375 736.7421875 C-235.90863281 734.84726562 -236.44617188 732.95234375 -237 731 C-237.79535156 728.54820312 -238.59070313 726.09640625 -239.41015625 723.5703125 C-240.28542969 720.96898437 -241.16070313 718.36765625 -242.0625 715.6875 C-242.92359375 713.15320313 -243.7846875 710.61890625 -244.671875 708.0078125 C-245.82429687 704.53894531 -245.82429687 704.53894531 -247 701 C-247.52078125 699.22367188 -248.0415625 697.44734375 -248.578125 695.6171875 C-249.18914062 693.36261719 -249.18914062 693.36261719 -249.8125 691.0625 C-250.534375 688.401875 -251.25625 685.74125 -252 683 C-252.825 680.48375 -253.65 677.9675 -254.5 675.375 C-255.325 672.94125 -256.15 670.5075 -257 668 C-257.825 665.339375 -258.65 662.67875 -259.5 659.9375 C-260.325 657.318125 -261.15 654.69875 -262 652 C-262.825 649.69 -263.65 647.38 -264.5 645 C-265.325 642.69 -266.15 640.38 -267 638 C-267.70125 635.669375 -268.4025 633.33875 -269.125 630.9375 C-270.548125 626.5134375 -270.548125 626.5134375 -272 622 C-272.85335937 619.66421875 -273.70671875 617.3284375 -274.5859375 614.921875 C-276.02839844 611.09335938 -276.02839844 611.09335938 -277.5 607.1875 C-278.4178125 604.76792969 -279.335625 602.34835937 -280.28125 599.85546875 C-281.62703125 596.46201172 -281.62703125 596.46201172 -283 593 C-283.85980469 591.13472656 -284.71960938 589.26945313 -285.60546875 587.34765625 C-286.39566406 585.58292969 -287.18585938 583.81820312 -288 582 C-288.64582031 580.10765625 -289.29164063 578.2153125 -289.95703125 576.265625 C-290.56933594 574.28046875 -291.18164062 572.2953125 -291.8125 570.25 C-292.49828125 568.06890625 -293.1840625 565.8878125 -293.890625 563.640625 C-294.93476562 560.35351562 -294.93476562 560.35351562 -296 557 C-296.67546875 554.97359375 -297.3509375 552.9471875 -298.046875 550.859375 C-299.04460937 547.95898438 -299.04460937 547.95898438 -300.0625 545 C-301.05056641 542.18082031 -301.05056641 542.18082031 -302.05859375 539.3046875 C-302.69925781 537.55414062 -303.33992188 535.80359375 -304 534 C-305.19625 531.07125 -306.3925 528.1425 -307.625 525.125 C-308.73875 522.44375 -309.8525 519.7625 -311 517 C-312.051875 514.050625 -313.10375 511.10125 -314.1875 508.0625 C-315.115625 505.401875 -316.04375 502.74125 -317 500 C-317.721875 498.14375 -318.44375 496.2875 -319.1875 494.375 C-319.785625 492.93125 -320.38375 491.4875 -321 490 C-321.99 487.69 -322.98 485.38 -324 483 C-324.45375 480.97875 -324.9075 478.9575 -325.375 476.875 C-326.179375 473.471875 -326.179375 473.471875 -327 470 C-327.7425 467.97875 -328.485 465.9575 -329.25 463.875 C-330.1575 461.60625 -331.065 459.3375 -332 457 C-333.134375 453.90625 -334.26875 450.8125 -335.4375 447.625 C-336.03175781 446.0059375 -336.62601563 444.386875 -337.23828125 442.71875 C-337.81964844 441.1615625 -338.40101563 439.604375 -339 438 C-340.03125 435.40125 -341.0625 432.8025 -342.125 430.125 C-343.07375 427.77375 -344.0225 425.4225 -345 423 C-345.74121094 421.0096875 -346.48242188 419.019375 -347.24609375 416.96875 C-348.15488281 414.6690625 -349.06367187 412.369375 -350 410 C-351.10214844 407.61523438 -352.20429687 405.23046875 -353.33984375 402.7734375 C-354.52707031 400.33195312 -355.71429687 397.89046875 -356.9375 395.375 C-358.12214844 392.92835938 -359.30679687 390.48171875 -360.52734375 387.9609375 C-361.67332031 385.66382813 -362.81929687 383.36671875 -364 381 C-365.02222656 379.11925781 -366.04445313 377.23851562 -367.09765625 375.30078125 C-368.05542969 373.55152344 -369.01320313 371.80226563 -370 370 C-370.9178125 368.15019531 -371.835625 366.30039062 -372.78125 364.39453125 C-373.6784375 362.55246094 -374.575625 360.71039063 -375.5 358.8125 C-376.3971875 356.96269531 -377.294375 355.11289062 -378.21875 353.20703125 C-379.1365625 351.48871094 -380.054375 349.77039063 -381 348 C-382.98 345.36 -384.96 342.72 -387 340 C-389.64 340.33 -392.28 340.66 -395 341 C-396.68609375 341.32355469 -398.3721875 341.64710938 -400.109375 341.98046875 C-402.90148437 342.57794922 -402.90148437 342.57794922 -405.75 343.1875 C-407.77253906 343.63480469 -409.79507812 344.08210938 -411.87890625 344.54296875 C-414.90884766 345.26419922 -414.90884766 345.26419922 -418 346 C-419.82402344 346.49113281 -421.64804687 346.98226563 -423.52734375 347.48828125 C-425.23019531 347.98714844 -426.93304687 348.48601562 -428.6875 349 C-431.760625 349.99 -434.83375 350.98 -438 352 C-439.90523438 352.77730469 -441.81046875 353.55460937 -443.7734375 354.35546875 C-446.85558594 355.66451172 -446.85558594 355.66451172 -450 357 C-452.09214844 357.86238281 -454.18429687 358.72476562 -456.33984375 359.61328125 C-458.51707031 360.50402344 -460.69429688 361.39476562 -462.9375 362.3125 C-465.29261719 363.27285156 -467.64773438 364.23320312 -470.07421875 365.22265625 C-472.35972656 366.13917969 -474.64523437 367.05570312 -477 368 C-479.91779297 369.11181641 -479.91779297 369.11181641 -482.89453125 370.24609375 C-484.66183594 370.90738281 -486.42914063 371.56867188 -488.25 372.25 C-490.76753906 373.19939453 -490.76753906 373.19939453 -493.3359375 374.16796875 C-494.87507813 374.77253906 -496.41421875 375.37710937 -498 376 C-500.59875 377.175625 -503.1975 378.35125 -505.875 379.5625 C-508.22625 380.696875 -510.5775 381.83125 -513 383 C-515.18625 384.010625 -517.3725 385.02125 -519.625 386.0625 C-522.38875 387.361875 -525.1525 388.66125 -528 390 C-530.30097656 391.1034375 -532.60195313 392.206875 -534.97265625 393.34375 C-537.51855469 394.5709375 -540.06445312 395.798125 -542.6875 397.0625 C-545.10449219 398.22910156 -547.52148438 399.39570313 -550.01171875 400.59765625 C-552.31785156 401.72042969 -554.62398437 402.84320313 -557 404 C-559.083125 405.03253906 -561.16625 406.06507813 -563.3125 407.12890625 C-566.1278125 408.55009766 -566.1278125 408.55009766 -569 410 C-570.58425781 410.82242187 -572.16851563 411.64484375 -573.80078125 412.4921875 C-575.28964844 413.27851563 -576.77851562 414.06484375 -578.3125 414.875 C-579.93671875 415.73222656 -581.5609375 416.58945312 -583.234375 417.47265625 C-584.80703125 418.30667969 -586.3796875 419.14070313 -588 420 C-590.660625 421.423125 -593.32125 422.84625 -596.0625 424.3125 C-598.351875 425.529375 -600.64125 426.74625 -603 428 C-604.753125 428.845625 -606.50625 429.69125 -608.3125 430.5625 C-610.6328125 431.7690625 -610.6328125 431.7690625 -613 433 C-614.485 434.051875 -615.97 435.10375 -617.5 436.1875 C-619.315 437.445625 -621.13 438.70375 -623 440 C-624.36640625 440.77730469 -625.7328125 441.55460937 -627.140625 442.35546875 C-628.66171875 443.18691406 -630.1828125 444.01835937 -631.75 444.875 C-633.30332031 445.72449219 -634.85664062 446.57398438 -636.45703125 447.44921875 C-637.95621094 448.29097656 -639.45539063 449.13273437 -641 450 C-643.454375 451.546875 -645.90875 453.09375 -648.4375 454.6875 C-650.603125 456.110625 -652.76875 457.53375 -655 459 C-656.876875 460.216875 -658.75375 461.43375 -660.6875 462.6875 C-662.440625 463.780625 -664.19375 464.87375 -666 466 C-667.7325 466.94875 -669.465 467.8975 -671.25 468.875 C-673.1475 469.90625 -675.045 470.9375 -677 472 C-679.475 473.464375 -681.95 474.92875 -684.5 476.4375 C-686.975 477.943125 -689.45 479.44875 -692 481 C-693.959375 482.258125 -695.91875 483.51625 -697.9375 484.8125 C-700.4434375 486.3903125 -700.4434375 486.3903125 -703 488 C-706.96 489.98 -706.96 489.98 -711 492 C-712.44375 492.99 -713.8875 493.98 -715.375 495 C-718.159375 496.98 -718.159375 496.98 -721 499 C-722.38058594 499.91394531 -723.76117187 500.82789063 -725.18359375 501.76953125 C-726.71113281 502.77371094 -728.23867188 503.77789063 -729.8125 504.8125 C-731.37355469 505.85019531 -732.93460938 506.88789062 -734.54296875 507.95703125 C-736.01378906 508.96121094 -737.48460937 509.96539063 -739 511 C-742.279375 513.475 -742.279375 513.475 -745.625 516 C-748.780625 518.475 -748.780625 518.475 -752 521 C-753.28648437 521.99257813 -754.57296875 522.98515625 -755.8984375 524.0078125 C-757.92871094 525.55082031 -757.92871094 525.55082031 -760 527.125 C-762.64 529.06375 -765.28 531.0025 -768 533 C-770.289375 534.44375 -772.57875 535.8875 -774.9375 537.375 C-776.938125 538.57125 -778.93875 539.7675 -781 541 C-783.4440625 542.7015625 -783.4440625 542.7015625 -785.9375 544.4375 C-787.278125 545.283125 -788.61875 546.12875 -790 547 C-791.98 547.33 -793.96 547.66 -796 548 C-796.99 547.34 -797.98 546.68 -799 546 C-798.67 543.69 -798.34 541.38 -798 539 C-796.96875 536.133125 -795.9375 533.26625 -794.875 530.3125 C-794.24464844 528.72953125 -793.61429688 527.1465625 -792.96484375 525.515625 C-792.31644531 524.02546875 -791.66804687 522.5353125 -791 521 C-789.2365625 517.8134375 -789.2365625 517.8134375 -787.4375 514.5625 C-786.303125 512.726875 -785.16875 510.89125 -784 509 C-783.05125 507.22625 -782.1025 505.4525 -781.125 503.625 C-779.578125 500.840625 -779.578125 500.840625 -778 498 C-776.535625 495.69 -775.07125 493.38 -773.5625 491 C-772.056875 488.69 -770.55125 486.38 -769 484 C-767.824375 482.185 -766.64875 480.37 -765.4375 478.5 C-764.303125 476.685 -763.16875 474.87 -762 473 C-760.72125 470.81375 -759.4425 468.6275 -758.125 466.375 C-756.76375 463.94125 -755.4025 461.5075 -754 459 C-751.710625 454.66875 -751.710625 454.66875 -749.375 450.25 C-747.93125 447.5275 -746.4875 444.805 -745 442 C-743.96875 440.205625 -742.9375 438.41125 -741.875 436.5625 C-740.92625 435.056875 -739.9775 433.55125 -739 432 C-737.39125 429.586875 -737.39125 429.586875 -735.75 427.125 C-734.5125 425.43375 -733.275 423.7425 -732 422 C-730.35 420.02 -728.7 418.04 -727 416 C-725.35 414.02 -723.7 412.04 -722 410 C-720.68 408.1025 -719.36 406.205 -718 404.25 C-717.01 402.8475 -716.02 401.445 -715 400 C-714.34 400 -713.68 400 -713 400 C-712.34 398.68 -711.68 397.36 -711 396 C-709.14375 393.834375 -707.2875 391.66875 -705.375 389.4375 C-703.27125 386.983125 -701.1675 384.52875 -699 382 C-697.5975 380.123125 -696.195 378.24625 -694.75 376.3125 C-693.5125 374.559375 -692.275 372.80625 -691 371 C-689.02 368.215625 -689.02 368.215625 -687 365.375 C-685.68 363.60125 -684.36 361.8275 -683 360 C-680.9890625 357.6796875 -680.9890625 357.6796875 -678.9375 355.3125 C-677.638125 353.889375 -676.33875 352.46625 -675 351 C-673.9275 349.783125 -672.855 348.56625 -671.75 347.3125 C-670.5125 345.889375 -669.275 344.46625 -668 343 C-666.123125 340.7725 -664.24625 338.545 -662.3125 336.25 C-660.229375 333.8575 -658.14625 331.465 -656 329 C-653.875625 326.834375 -651.75125 324.66875 -649.5625 322.4375 C-647.726875 320.643125 -645.89125 318.84875 -644 317 C-642.35 315.35 -640.7 313.7 -639 312 C-636.916875 309.73125 -634.83375 307.4625 -632.6875 305.125 C-629.3771875 301.598125 -629.3771875 301.598125 -626 298 C-624.700625 296.845 -623.40125 295.69 -622.0625 294.5 C-620.721875 293.345 -619.38125 292.19 -618 291 C-615.69 288.69 -613.38 286.38 -611 284 C-608.69 281.69 -606.38 279.38 -604 277 C-602.659375 275.80375 -601.31875 274.6075 -599.9375 273.375 C-598.638125 272.26125 -597.33875 271.1475 -596 270 C-593.97875 268.081875 -591.9575 266.16375 -589.875 264.1875 C-587.60625 262.145625 -585.3375 260.10375 -583 258 C-580.525 256.185 -578.05 254.37 -575.5 252.5 C-573.355 251.015 -571.21 249.53 -569 248 C-566.525 246.02 -566.525 246.02 -564 244 C-562.4325 242.7625 -560.865 241.525 -559.25 240.25 C-557.1875 238.5175 -555.125 236.785 -553 235 C-551.00066406 233.12248047 -551.00066406 233.12248047 -548.9609375 231.20703125 C-547.53007813 229.83933594 -546.09921875 228.47164062 -544.625 227.0625 C-542.44970703 224.99355469 -542.44970703 224.99355469 -540.23046875 222.8828125 C-538.83441406 221.60148438 -537.43835938 220.32015625 -536 219 C-532.5040625 216.2465625 -532.5040625 216.2465625 -528.9375 213.4375 C-526.978125 211.973125 -525.01875 210.50875 -523 209 C-521.741875 207.865625 -520.48375 206.73125 -519.1875 205.5625 C-517.805625 204.386875 -516.42375 203.21125 -515 202 C-512.463125 200.246875 -509.92625 198.49375 -507.3125 196.6875 C-505.92546875 195.75035156 -504.5384375 194.81320313 -503.109375 193.84765625 C-501.07523437 192.43806641 -501.07523437 192.43806641 -499 191 C-496.710625 189.22625 -494.42125 187.4525 -492.0625 185.625 C-489.0615625 183.335625 -489.0615625 183.335625 -486 181 C-484.453125 180.113125 -482.90625 179.22625 -481.3125 178.3125 C-479.889375 177.549375 -478.46625 176.78625 -477 176 C-474.7725 174.4221875 -474.7725 174.4221875 -472.5 172.8125 C-470.685 171.554375 -468.87 170.29625 -467 169 C-464.2775 167.370625 -461.555 165.74125 -458.75 164.0625 C-457.28949219 163.21300781 -455.82898438 162.36351562 -454.32421875 161.48828125 C-452.89722656 160.66714844 -451.47023438 159.84601563 -450 159 C-447.545625 157.5975 -445.09125 156.195 -442.5625 154.75 C-440.396875 153.5125 -438.23125 152.275 -436 151 C-434.35 149.989375 -432.7 148.97875 -431 147.9375 C-429.35 146.968125 -427.7 145.99875 -426 145 C-423.73125 143.865625 -421.4625 142.73125 -419.125 141.5625 C-416.77375 140.386875 -414.4225 139.21125 -412 138 C-410.02 136.845 -408.04 135.69 -406 134.5 C-404.02 133.345 -402.04 132.19 -400 131 C-397.89625 129.948125 -395.7925 128.89625 -393.625 127.8125 C-391.10875 126.554375 -388.5925 125.29625 -386 124 C-384.2778125 123.06671875 -382.555625 122.1334375 -380.78125 121.171875 C-378.9146875 120.14578125 -377.048125 119.1196875 -375.125 118.0625 C-373.2378125 117.02738281 -371.350625 115.99226563 -369.40625 114.92578125 C-367.6221875 113.96027344 -365.838125 112.99476563 -364 112 C-361.23625 110.5975 -358.4725 109.195 -355.625 107.75 C-351.850625 105.89375 -351.850625 105.89375 -348 104 C-345.40125 102.68 -342.8025 101.36 -340.125 100 C-337.44375 98.68 -334.7625 97.36 -332 96 C-330.40542969 95.28199219 -328.81085938 94.56398438 -327.16796875 93.82421875 C-325.56566406 93.11910156 -323.96335937 92.41398437 -322.3125 91.6875 C-319.569375 90.470625 -316.82625 89.25375 -314 88 C-312.35 87.01 -310.7 86.02 -309 85 C-306.6075 84.071875 -304.215 83.14375 -301.75 82.1875 C-299.1925 81.135625 -296.635 80.08375 -294 79 C-292.535625 78.01 -291.07125 77.02 -289.5625 76 C-288.056875 75.01 -286.55125 74.02 -285 73 C-282.380625 71.989375 -279.76125 70.97875 -277.0625 69.9375 C-274.401875 68.968125 -271.74125 67.99875 -269 67 C-266.586875 65.7934375 -266.586875 65.7934375 -264.125 64.5625 C-262.43375 63.716875 -260.7425 62.87125 -259 62 C-256.009375 60.824375 -253.01875 59.64875 -249.9375 58.4375 C-246.988125 57.303125 -244.03875 56.16875 -241 55 C-236.545 53.02 -236.545 53.02 -232 51 C-229.751875 50.030625 -227.50375 49.06125 -225.1875 48.0625 C-222.815625 47.051875 -220.44375 46.04125 -218 45 C-215.916875 44.113125 -213.83375 43.22625 -211.6875 42.3125 C-209.810625 41.549375 -207.93375 40.78625 -206 40 C-201.545 38.515 -201.545 38.515 -197 37 C-195.05867187 36.4328125 -193.11734375 35.865625 -191.1171875 35.28125 C-189.05726563 34.6934375 -186.99734375 34.105625 -184.875 33.5 C-181.77738281 32.61828125 -181.77738281 32.61828125 -178.6171875 31.71875 C-176.76351562 31.1515625 -174.90984375 30.584375 -173 30 C-170.69 29.01 -168.38 28.02 -166 27 C-164.185 26.835 -162.37 26.67 -160.5 26.5 C-158.685 26.335 -156.87 26.17 -155 26 C-152.69 25.01 -150.38 24.02 -148 23 C-145.03 22.67 -142.06 22.34 -139 22 C-136.19242188 21.46246094 -136.19242188 21.46246094 -133.328125 20.9140625 C-131.32234375 20.48867188 -129.3165625 20.06328125 -127.25 19.625 C-125.12175781 19.17511719 -122.99351562 18.72523437 -120.80078125 18.26171875 C-118.88652344 17.84535156 -116.97226562 17.42898437 -115 17 C-112.834375 16.484375 -110.66875 15.96875 -108.4375 15.4375 C-106.313125 14.963125 -104.18875 14.48875 -102 14 C-100.3809375 13.70480469 -98.761875 13.40960938 -97.09375 13.10546875 C-95.2271875 12.78191406 -93.360625 12.45835938 -91.4375 12.125 C-89.47167969 11.78984375 -87.50585938 11.4546875 -85.48046875 11.109375 C-83.34191406 10.74328125 -81.20335937 10.3771875 -79 10 C-75.37451172 9.35804687 -75.37451172 9.35804687 -71.67578125 8.703125 C-69.22527344 8.26484375 -66.77476562 7.8265625 -64.25 7.375 C-61.98640625 6.97023438 -59.7228125 6.56546875 -57.390625 6.1484375 C-54.22726562 5.57996094 -54.22726562 5.57996094 -51 5 C-48.08220703 4.44892578 -48.08220703 4.44892578 -45.10546875 3.88671875 C-43.42066406 3.59410156 -41.73585938 3.30148438 -40 3 C-37.710625 2.814375 -35.42125 2.62875 -33.0625 2.4375 C-31.061875 2.293125 -29.06125 2.14875 -27 2 C-25.68 1.67 -24.36 1.34 -23 1 C-21.535625 0.89558594 -20.07125 0.79117187 -18.5625 0.68359375 C-16.726875 0.60238281 -14.89125 0.52117188 -13 0.4375 C-10.91300781 0.36015625 -8.82601562 0.2828125 -6.67578125 0.203125 C-4.47277344 0.13609375 -2.26976562 0.0690625 0 0 Z " transform="translate(941,20)" style="fill: #FFFFFF;"/><path d="M0 0 C2.475 0.495 2.475 0.495 5 1 C5.99 2.65 6.98 4.3 8 6 C8.639375 7.65 9.27875 9.3 9.9375 11 C10.9584375 13.475 10.9584375 13.475 12 16 C13.32 17.65 14.64 19.3 16 21 C17.155 23.26875 18.31 25.5375 19.5 27.875 C20.18964844 29.28523437 20.87929688 30.69546875 21.58984375 32.1484375 C22.38519531 33.74945312 23.18054687 35.35046875 24 37 C24.97066406 38.84851563 25.94132812 40.69703125 26.94140625 42.6015625 C27.97136719 44.54804687 29.00132813 46.49453125 30.0625 48.5 C31.60164063 51.43326172 31.60164063 51.43326172 33.171875 54.42578125 C34.10515625 56.26527344 35.0384375 58.10476563 36 60 C37.258125 62.866875 38.51625 65.73375 39.8125 68.6875 C40.864375 71.100625 41.91625 73.51375 43 76 C44.19625 78.10375 45.3925 80.2075 46.625 82.375 C47.73875 84.23125 48.8525 86.0875 50 88 C50.86625 89.69125 51.7325 91.3825 52.625 93.125 C53.800625 95.538125 53.800625 95.538125 55 98 C55.886875 99.815 56.77375 101.63 57.6875 103.5 C58.450625 104.985 59.21375 106.47 60 108 C60.66 108.66 61.32 109.32 62 110 C65.465 109.505 65.465 109.505 69 109 C70.92199219 108.15695312 72.84398438 107.31390625 74.82421875 106.4453125 C77.08910156 105.34960938 79.35398437 104.25390625 81.6875 103.125 C84.16636719 101.95066406 86.64523438 100.77632812 89.19921875 99.56640625 C91.77347656 98.38949219 94.34773438 97.21257812 97 96 C99.52269531 94.97777344 102.04539062 93.95554687 104.64453125 92.90234375 C107.07183594 91.96519531 109.49914062 91.02804687 112 90.0625 C114.206875 89.22847656 116.41375 88.39445313 118.6875 87.53515625 C120.770625 86.69855469 122.85375 85.86195313 125 85 C127.10117188 83.96746094 129.20234375 82.93492187 131.3671875 81.87109375 C134.15542969 80.44990234 134.15542969 80.44990234 137 79 C139.35125 78.01 141.7025 77.02 144.125 76 C146.72375 75.01 149.3225 74.02 152 73 C155.0525 71.989375 158.105 70.97875 161.25 69.9375 C164.1375 68.968125 167.025 67.99875 170 67 C171.8975 66.154375 173.795 65.30875 175.75 64.4375 C177.4825 63.633125 179.215 62.82875 181 62 C183.371875 61.154375 185.74375 60.30875 188.1875 59.4375 C190.435625 58.633125 192.68375 57.82875 195 57 C197.64 55.68 200.28 54.36 203 53 C205.97 52.01 208.94 51.02 212 50 C213.84851563 49.31164062 215.69703125 48.62328125 217.6015625 47.9140625 C219.58929688 47.15867187 221.57703125 46.40328125 223.625 45.625 C225.74550781 44.82707031 227.86601562 44.02914062 230.05078125 43.20703125 C232.01402344 42.47871094 233.97726562 41.75039063 236 41 C238.578125 40.113125 241.15625 39.22625 243.8125 38.3125 C246.184375 37.549375 248.55625 36.78625 251 36 C253.701875 35.154375 256.40375 34.30875 259.1875 33.4375 C261.55421875 32.695 261.55421875 32.695 263.96875 31.9375 C265.9590625 31.298125 267.949375 30.65875 270 30 C272.8565625 29.05125 275.713125 28.1025 278.65625 27.125 C280.22093018 26.60236572 281.78561035 26.07973145 283.39770508 25.54125977 C285.76865356 24.74739868 285.76865356 24.74739868 288.1875 23.9375 C291.17167969 22.93589844 294.15585937 21.93429687 297.23046875 20.90234375 C300.12441406 19.94457031 303.01835937 18.98679687 306 18 C308.84238281 17.05253906 311.68476563 16.10507812 314.61328125 15.12890625 C317.05089844 14.42636719 319.48851562 13.72382812 322 13 C324.64 13 327.28 13 330 13 C331.98 13.99 331.98 13.99 334 15 C334.66 16.35738281 335.32 17.71476563 336 19.11328125 C336.66 20.82902344 337.32 22.54476562 338 24.3125 C339.04414062 27.02339844 339.04414062 27.02339844 340.109375 29.7890625 C340.73328125 31.50867188 341.3571875 33.22828125 342 35 C343.11375 38.5578125 343.11375 38.5578125 344.25 42.1875 C344.8275 44.105625 345.405 46.02375 346 48 C347.98 52.455 347.98 52.455 350 57 C351.010625 59.68125 352.02125 62.3625 353.0625 65.125 C354.031875 67.72375 355.00125 70.3225 356 73 C356.99 75.31 357.98 77.62 359 80 C360.04994141 82.43826172 360.04994141 82.43826172 361.12109375 84.92578125 C361.88550781 86.70339844 362.64992188 88.48101563 363.4375 90.3125 C364.58025391 92.96732422 364.58025391 92.96732422 365.74609375 95.67578125 C366.48988281 97.43277344 367.23367188 99.18976563 368 101 C368.65226562 102.62421875 369.30453125 104.2484375 369.9765625 105.921875 C370.64429688 107.59765625 371.31203125 109.2734375 372 111 C373.18916016 113.89072266 373.18916016 113.89072266 374.40234375 116.83984375 C375.23894531 118.85207031 376.07554687 120.86429688 376.9375 122.9375 C377.77152344 124.94714844 378.60554688 126.95679688 379.46484375 129.02734375 C380.71974609 131.98380859 380.71974609 131.98380859 382 135 C383.35158203 137.95066406 383.35158203 137.95066406 384.73046875 140.9609375 C385.47941406 142.62382813 386.22835938 144.28671875 387 146 C387.45375 147.546875 387.9075 149.09375 388.375 150.6875 C388.91125 152.440625 389.4475 154.19375 390 156 C391.134375 158.701875 392.26875 161.40375 393.4375 164.1875 C394.613125 166.765625 395.78875 169.34375 397 172 C398.98 175.465 398.98 175.465 401 179 C401.680625 181.02125 402.36125 183.0425 403.0625 185.125 C403.701875 187.06375 404.34125 189.0025 405 191 C405.99 192.65 406.98 194.3 408 196 C408.99 198.64 409.98 201.28 411 204 C412.27875 206.248125 413.5575 208.49625 414.875 210.8125 C416.23625 213.184375 417.5975 215.55625 419 218 C420.2065625 220.5678125 420.2065625 220.5678125 421.4375 223.1875 C422.283125 225.105625 423.12875 227.02375 424 229 C424.65613281 230.42183594 425.31226563 231.84367187 425.98828125 233.30859375 C426.73464844 234.89800781 427.48101562 236.48742188 428.25 238.125 C429.0234375 239.75953125 429.796875 241.3940625 430.59375 243.078125 C431.3878125 244.70234375 432.181875 246.3265625 433 248 C433.7940625 249.50046875 434.588125 251.0009375 435.40625 252.546875 C436.1796875 253.97515625 436.953125 255.4034375 437.75 256.875 C439.1525 259.55625 440.555 262.2375 442 265 C442.928125 267.18625 443.85625 269.3725 444.8125 271.625 C445.534375 273.72875 446.25625 275.8325 447 278 C447.93199219 281.403125 447.93199219 281.403125 448.8828125 284.875 C449.58148438 287.55625 450.28015625 290.2375 451 293 C451.67160156 295.68898438 452.34320313 298.37796875 453.03515625 301.1484375 C453.70417969 303.86320312 454.37320312 306.57796875 455.0625 309.375 C455.73410156 312.10523438 456.40570313 314.83546875 457.09765625 317.6484375 C457.72542969 320.07445312 458.35320312 322.50046875 459 325 C460.485 329.455 460.485 329.455 462 334 C462.7734375 336.6915625 462.7734375 336.6915625 463.5625 339.4375 C464.036875 341.273125 464.51125 343.10875 465 345 C465.29003906 346.51851562 465.58007812 348.03703125 465.87890625 349.6015625 C466.24886719 351.38304687 466.61882812 353.16453125 467 355 C467.52335937 356.94777344 468.04671875 358.89554688 468.5859375 360.90234375 C469.17632812 362.89394531 469.76671875 364.88554688 470.375 366.9375 C470.96023438 368.94714844 471.54546875 370.95679688 472.1484375 373.02734375 C473.06496094 375.48880859 473.06496094 375.48880859 474 378 C475.98 379.485 475.98 379.485 478 381 C479.48282471 381.38857178 480.96564941 381.77714355 482.4934082 382.17749023 C484.3105835 382.44891846 486.12775879 382.72034668 488 383 C489.91321045 383.06968994 491.8264209 383.13937988 493.79760742 383.21118164 C496.91999878 383.18592407 496.91999878 383.18592407 500.10546875 383.16015625 C503.52889648 383.1437207 503.52889648 383.1437207 507.02148438 383.12695312 C509.38626953 383.10568359 511.75105469 383.08441406 514.1875 383.0625 C517.75208008 383.03639648 517.75208008 383.03639648 521.38867188 383.00976562 C523.66708984 382.99751953 525.94550781 382.98527344 528.29296875 382.97265625 C530.3711792 382.95468994 532.44938965 382.93672363 534.59057617 382.91821289 C537.26824097 382.95869751 537.26824097 382.95869751 540 383 C542.31 383.33 544.62 383.66 547 384 C549.51625 384.04125 552.0325 384.0825 554.625 384.125 C558.275625 384.063125 558.275625 384.063125 562 384 C563.65 383.67 565.3 383.34 567 383 C569.31 383 571.62 383 574 383 C575.093125 384.19625 576.18625 385.3925 577.3125 386.625 C578.529375 388.39875 579.74625 390.1725 581 392 C582.588125 394.18625 584.17625 396.3725 585.8125 398.625 C587.524375 401.05875 589.23625 403.4925 591 406 C592.54816406 408.31515625 594.09632813 410.6303125 595.69140625 413.015625 C597.44324219 415.65046875 599.19507813 418.2853125 601 421 C602.67320312 423.49820312 604.34640625 425.99640625 606.0703125 428.5703125 C607.73835937 431.06335937 609.40640625 433.55640625 611.125 436.125 C612.79820312 438.62320312 614.47140625 441.12140625 616.1953125 443.6953125 C617.78085937 446.10585937 619.36640625 448.51640625 621 451 C622.45277344 453.35125 623.90554688 455.7025 625.40234375 458.125 C626.58957031 460.06375 627.77679687 462.0025 629 464 C630.7015625 466.413125 630.7015625 466.413125 632.4375 468.875 C633.613125 470.56625 634.78875 472.2575 636 474 C637.423125 476.371875 638.84625 478.74375 640.3125 481.1875 C641.859375 483.765625 643.40625 486.34375 645 489 C647.5059375 492.83625 647.5059375 492.83625 650.0625 496.75 C652.5065625 500.33875 652.5065625 500.33875 655 504 C656.485 506.041875 657.97 508.08375 659.5 510.1875 C661.2325 512.5696875 661.2325 512.5696875 663 515 C663.66 516.32 664.32 517.64 665 519 C667.64 518.67 670.28 518.34 673 518 C674.79566406 517.44828125 676.59132813 516.8965625 678.44140625 516.328125 C680.46136719 515.64234375 682.48132813 514.9565625 684.5625 514.25 C686.75648438 513.53070312 688.95046875 512.81140625 691.2109375 512.0703125 C693.45132813 511.38710937 695.69171875 510.70390625 698 510 C701.23683594 509.22269531 701.23683594 509.22269531 704.5390625 508.4296875 C706.56804688 507.99914063 708.59703125 507.56859375 710.6875 507.125 C712.52699219 506.75632812 714.36648438 506.38765625 716.26171875 506.0078125 C717.82535156 505.67523437 719.38898437 505.34265625 721 505 C722.98 504.34 724.96 503.68 727 503 C728.85625 502.62875 730.7125 502.2575 732.625 501.875 C734.72875 501.91625 736.8325 501.9575 739 502 C741.000625 503.0725 743.00125 504.145 745.0625 505.25 C747.021875 506.8175 748.98125 508.385 751 510 C752.8975 511.835625 754.795 513.67125 756.75 515.5625 C759.34875 518.2540625 759.34875 518.2540625 762 521 C763.423125 522.27875 764.84625 523.5575 766.3125 524.875 C767.529375 525.90625 768.74625 526.9375 770 528 C771.98 529.65 773.96 531.3 776 533 C776.66 533.33 777.32 533.66 778 534 C779.98 534 781.96 534 784 534 C786.248125 532.80375 788.49625 531.6075 790.8125 530.375 C793.184375 528.93125 795.55625 527.4875 798 526 C799.546875 524.989375 801.09375 523.97875 802.6875 522.9375 C804.8221875 521.4834375 804.8221875 521.4834375 807 520 C808.77375 518.865625 810.5475 517.73125 812.375 516.5625 C814.23125 515.386875 816.0875 514.21125 818 513 C819.753125 511.88625 821.50625 510.7725 823.3125 509.625 C825.189375 508.42875 827.06625 507.2325 829 506 C831.145 504.576875 833.29 503.15375 835.5 501.6875 C839.2125 499.3671875 839.2125 499.3671875 843 497 C844.52625 496.16984375 846.0525 495.3396875 847.625 494.484375 C849.23375 493.64390625 850.8425 492.8034375 852.5 491.9375 C854.11003906 491.10476563 855.72007812 490.27203125 857.37890625 489.4140625 C858.90386719 488.61742187 860.42882812 487.82078125 862 487 C864.454375 485.618125 866.90875 484.23625 869.4375 482.8125 C871.603125 481.554375 873.76875 480.29625 876 479 C877.835625 477.88625 879.67125 476.7725 881.5625 475.625 C883.686875 474.42875 885.81125 473.2325 888 472 C890.52527344 470.77023437 890.52527344 470.77023437 893.1015625 469.515625 C894.94492187 468.64421875 896.78828125 467.7728125 898.6875 466.875 C900.42386719 466.06804687 902.16023437 465.26109375 903.94921875 464.4296875 C905.61597656 463.62789062 907.28273438 462.82609375 909 462 C910.51335938 461.13890625 912.02671875 460.2778125 913.5859375 459.390625 C915.04257812 458.60171875 916.49921875 457.8128125 918 457 C920.949375 455.96875 923.89875 454.9375 926.9375 453.875 C929.928125 452.92625 932.91875 451.9775 936 451 C937.629375 450.484375 939.25875 449.96875 940.9375 449.4375 C942.608125 448.963125 944.27875 448.48875 946 448 C950.6096875 446.7934375 950.6096875 446.7934375 955.3125 445.5625 C957.78556641 444.91667969 957.78556641 444.91667969 960.30859375 444.2578125 C961.85675781 443.84273437 963.40492188 443.42765625 965 443 C967.26875 442.319375 969.5375 441.63875 971.875 440.9375 C973.89625 440.298125 975.9175 439.65875 978 439 C980.083125 438.34 982.16625 437.68 984.3125 437 C986.519375 436.34 988.72625 435.68 991 435 C993.701875 434.319375 996.40375 433.63875 999.1875 432.9375 C1001.765625 432.298125 1004.34375 431.65875 1007 431 C1008.65 430.505 1010.3 430.01 1012 429.5 C1013.65 429.005 1015.3 428.51 1017 428 C1019.536875 427.319375 1022.07375 426.63875 1024.6875 425.9375 C1027.430625 425.298125 1030.17375 424.65875 1033 424 C1035.7225 423.505 1038.445 423.01 1041.25 422.5 C1043.4775 422.335 1045.705 422.17 1048 422 C1049.32 423.32 1050.64 424.64 1052 426 C1052.39445312 427.73378906 1052.78890625 429.46757813 1053.1953125 431.25390625 C1053.50210937 433.33574219 1053.80890625 435.41757813 1054.125 437.5625 C1054.59292969 440.65818359 1054.59292969 440.65818359 1055.0703125 443.81640625 C1055.37710937 445.85699219 1055.68390625 447.89757813 1056 450 C1056.35707031 451.89621094 1056.71414063 453.79242187 1057.08203125 455.74609375 C1057.38496094 457.47988281 1057.68789062 459.21367188 1058 461 C1058.185625 463.805 1058.37125 466.61 1058.5625 469.5 C1058.706875 471.975 1058.85125 474.45 1059 477 C1059.33 477.99 1059.66 478.98 1060 480 C1060.268125 482.083125 1060.53625 484.16625 1060.8125 486.3125 C1061.204375 489.179375 1061.59625 492.04625 1062 495 C1062.33644531 496.84851562 1062.67289063 498.69703125 1063.01953125 500.6015625 C1063.56673828 503.49035156 1063.56673828 503.49035156 1064.125 506.4375 C1064.47820312 508.25121094 1064.83140625 510.06492187 1065.1953125 511.93359375 C1065.46085937 513.60550781 1065.72640625 515.27742188 1066 517 C1066 519.64 1066 522.28 1066 525 C1066.66 526.32 1067.32 527.64 1068 529 C1068.061875 532.3103125 1068.061875 532.3103125 1068.125 535.6875 C1068.41375 537.770625 1068.7025 539.85375 1069 542 C1071.64 542.33 1074.28 542.66 1077 543 C1079.44535156 542.319375 1081.89070313 541.63875 1084.41015625 540.9375 C1088.69306641 539.4834375 1088.69306641 539.4834375 1093.0625 538 C1096.10210938 536.98550781 1099.14171875 535.97101562 1102.2734375 534.92578125 C1105.15320312 533.96027344 1108.03296875 532.99476563 1111 532 C1113.15789062 531.31292969 1115.31578125 530.62585937 1117.5390625 529.91796875 C1119.40304687 529.34691406 1121.26703125 528.77585937 1123.1875 528.1875 C1125.89259766 527.37345703 1125.89259766 527.37345703 1128.65234375 526.54296875 C1131.29943359 525.77919922 1131.29943359 525.77919922 1134 525 C1135.83691406 524.50113281 1137.67382812 524.00226562 1139.56640625 523.48828125 C1141.44199219 522.99714844 1143.31757812 522.50601563 1145.25 522 C1147.14621094 521.51402344 1149.04242187 521.02804687 1150.99609375 520.52734375 C1152.97738281 520.02332031 1154.95867187 519.51929688 1157 519 C1159.15660156 518.44441406 1161.31320312 517.88882813 1163.53515625 517.31640625 C1165.77167969 516.73761719 1168.00820312 516.15882813 1170.3125 515.5625 C1172.560625 514.97984375 1174.80875 514.3971875 1177.125 513.796875 C1179.39375 513.20390625 1181.6625 512.6109375 1184 512 C1186.31 511.38640625 1188.62 510.7728125 1191 510.140625 C1193.248125 509.53734375 1195.49625 508.9340625 1197.8125 508.3125 C1199.95105469 507.735 1202.08960938 507.1575 1204.29296875 506.5625 C1207.11794922 505.7890625 1207.11794922 505.7890625 1210 505 C1212.51625 504.278125 1215.0325 503.55625 1217.625 502.8125 C1219.72875 502.214375 1221.8325 501.61625 1224 501 C1226.825625 500.236875 1229.65125 499.47375 1232.5625 498.6875 C1236.2440625 497.8521875 1236.2440625 497.8521875 1240 497 C1241.65 497.33 1243.3 497.66 1245 498 C1245.99 498.99 1246.98 499.98 1248 501 C1247.67 502.98 1247.34 504.96 1247 507 C1245.989375 509.701875 1244.97875 512.40375 1243.9375 515.1875 C1241.9884375 519.5496875 1241.9884375 519.5496875 1240 524 C1237.9890625 526.9390625 1237.9890625 526.9390625 1235.9375 529.9375 C1233.9884375 532.4434375 1233.9884375 532.4434375 1232 535 C1230.515 537.475 1230.515 537.475 1229 540 C1227.515 542.475 1227.515 542.475 1226 545 C1224.72125 546.835625 1223.4425 548.67125 1222.125 550.5625 C1220.76375 552.356875 1219.4025 554.15125 1218 556 C1215.9890625 558.2275 1215.9890625 558.2275 1213.9375 560.5 C1211.9884375 562.7275 1211.9884375 562.7275 1210 565 C1208.989375 566.670625 1207.97875 568.34125 1206.9375 570.0625 C1204.9884375 573.0015625 1204.9884375 573.0015625 1203 576 C1201.80117187 577.34707031 1200.60234375 578.69414063 1199.3671875 580.08203125 C1198.02914063 581.49871094 1196.69109375 582.91539062 1195.3125 584.375 C1194.02988281 585.70273438 1192.74726562 587.03046875 1191.42578125 588.3984375 C1190.29527344 589.58695313 1189.16476562 590.77546875 1188 592 C1186.68 593.65 1185.36 595.3 1184 597 C1182.35 598.65 1180.7 600.3 1179 602 C1177.39125 603.918125 1175.7825 605.83625 1174.125 607.8125 C1172.43375 609.854375 1170.7425 611.89625 1169 614 C1167.845 615.36125 1166.69 616.7225 1165.5 618.125 C1164.345 619.40375 1163.19 620.6825 1162 622 C1160.35 623.65 1158.7 625.3 1157 627 C1155.35 628.65 1153.7 630.3 1152 632 C1150.865625 633.27875 1149.73125 634.5575 1148.5625 635.875 C1147.386875 637.23625 1146.21125 638.5975 1145 640 C1142.2775 642.97 1142.2775 642.97 1139.5 646 C1136.7775 648.97 1136.7775 648.97 1134 652 C1132.783125 653.4025 1131.56625 654.805 1130.3125 656.25 C1129.219375 657.4875 1128.12625 658.725 1127 660 C1125.659375 661.340625 1124.31875 662.68125 1122.9375 664.0625 C1121.638125 665.361875 1120.33875 666.66125 1119 668 C1117.02 670.31 1115.04 672.62 1113 675 C1111.164375 676.546875 1109.32875 678.09375 1107.4375 679.6875 C1105.643125 681.110625 1103.84875 682.53375 1102 684 C1100.35 685.32 1098.7 686.64 1097 688 C1095.7625 689.093125 1094.525 690.18625 1093.25 691.3125 C1091.8475 692.529375 1090.445 693.74625 1089 695 C1087.494375 696.175625 1085.98875 697.35125 1084.4375 698.5625 C1082.2409375 700.2640625 1082.2409375 700.2640625 1080 702 C1077.69 703.98 1075.38 705.96 1073 708 C1069.4421875 710.3203125 1069.4421875 710.3203125 1065.8125 712.6875 C1063.564375 714.110625 1061.31625 715.53375 1059 717 C1057.68 717.99 1056.36 718.98 1055 720 C1054.34 720 1053.68 720 1053 720 C1053 720.66 1053 721.32 1053 722 C1051.82824219 722.91007812 1050.65648437 723.82015625 1049.44921875 724.7578125 C1047.87785156 725.86898437 1046.30648438 726.98015625 1044.6875 728.125 C1043.03363281 729.29804687 1041.37976562 730.47109375 1039.67578125 731.6796875 C1037.36126953 733.32324219 1037.36126953 733.32324219 1035 735 C1032.215625 737.10375 1032.215625 737.10375 1029.375 739.25 C1027.60125 740.4875 1025.8275 741.725 1024 743 C1021.339375 744.505625 1018.67875 746.01125 1015.9375 747.5625 C1013.318125 749.026875 1010.69875 750.49125 1008 752 C1006.45957031 753.09828125 1004.91914062 754.1965625 1003.33203125 755.328125 C1001.57246094 756.53984375 999.81289062 757.7515625 998 759 C994.80570313 760.78470703 994.80570313 760.78470703 991.546875 762.60546875 C989.30390625 763.78753906 987.0609375 764.96960937 984.75 766.1875 C981.37007812 767.97220703 981.37007812 767.97220703 977.921875 769.79296875 C974.99054688 771.38044922 974.99054688 771.38044922 972 773 C970.02 774.32 968.04 775.64 966 777 C964.040625 777.825 962.08125 778.65 960.0625 779.5 C958.061875 780.325 956.06125 781.15 954 782 C951.69 783.32 949.38 784.64 947 786 C944.69 786.845625 942.38 787.69125 940 788.5625 C937.69 789.366875 935.38 790.17125 933 791 C930.69 791.99 928.38 792.98 926 794 C924.39125 794.495 922.7825 794.99 921.125 795.5 C919.43375 795.995 917.7425 796.49 916 797 C911.545 798.485 911.545 798.485 907 800 C904.48375 800.763125 901.9675 801.52625 899.375 802.3125 C896.28125 803.199375 893.1875 804.08625 890 805 C887.97230469 805.53496094 885.94460938 806.06992188 883.85546875 806.62109375 C881.77878906 807.15863281 879.70210937 807.69617187 877.5625 808.25 C875.60441406 808.75015625 873.64632812 809.2503125 871.62890625 809.765625 C870.10136719 810.17296875 868.57382812 810.5803125 867 811 C866.34 811.33 865.68 811.66 865 812 C861.7 812 858.4 812 855 812 C850.3284375 812.928125 850.3284375 812.928125 845.5625 813.875 C843.82097656 814.24109375 842.07945312 814.6071875 840.28515625 814.984375 C838.54105469 815.31953125 836.79695312 815.6546875 835 816 C831.865 816.37125 828.73 816.7425 825.5 817.125 C822.365 817.41375 819.23 817.7025 816 818 C813.009375 818.33 810.01875 818.66 806.9375 819 C805.28878906 819.16628906 803.64007812 819.33257813 801.94140625 819.50390625 C799.98074219 819.66761719 798.02007813 819.83132813 796 820 C793.38964844 820.15339844 790.77929688 820.30679688 788.08984375 820.46484375 C783.77599609 820.69880859 783.77599609 820.69880859 779.375 820.9375 C776.44367187 821.09992187 773.51234375 821.26234375 770.4921875 821.4296875 C767.68976562 821.61789062 764.88734375 821.80609375 762 822 C759.67195312 822.25007813 757.34390625 822.50015625 754.9453125 822.7578125 C752.81835938 823.02335937 750.69140625 823.28890625 748.5 823.5625 C746.42074219 823.81644531 744.34148438 824.07039063 742.19921875 824.33203125 C739.13060547 824.66267578 739.13060547 824.66267578 736 825 C733.92332031 825.14824219 731.84664062 825.29648438 729.70703125 825.44921875 C727.59683594 825.54847656 725.48664062 825.64773438 723.3125 825.75 C721.20617187 825.81445312 719.09984375 825.87890625 716.9296875 825.9453125 C713.49949219 825.97238281 713.49949219 825.97238281 710 826 C707.19757812 825.95617188 704.39515625 825.91234375 701.5078125 825.8671875 C698.67960938 825.78726563 695.85140625 825.70734375 692.9375 825.625 C688.99103516 825.48964844 688.99103516 825.48964844 684.96484375 825.3515625 C682.99644531 825.23554687 681.02804687 825.11953125 679 825 C678.67 824.67 678.34 824.34 678 824 C676.5046875 823.979375 675.009375 823.95875 673.46875 823.9375 C671.4990625 823.958125 669.529375 823.97875 667.5 824 C664.60734375 824.0309375 664.60734375 824.0309375 661.65625 824.0625 C658.36140625 824.0315625 658.36140625 824.0315625 655 824 C652.34582031 823.88398437 649.69164062 823.76796875 646.95703125 823.6484375 C644.00121094 823.43445312 641.04539062 823.22046875 638 823 C634.79667969 822.64164063 631.59335937 822.28328125 628.29296875 821.9140625 C626.64401611 821.70700684 624.99506348 821.49995117 623.29614258 821.28662109 C621.61029053 821.06828613 619.92443848 820.84995117 618.1875 820.625 C616.42752686 820.40021973 614.66755371 820.17543945 612.85424805 819.94384766 C611.11570557 819.72003418 609.37716309 819.4962207 607.5859375 819.265625 C604.42257812 818.84796875 601.25921875 818.4303125 598 818 C595.82664062 817.70609375 593.65328125 817.4121875 591.4140625 817.109375 C589.73054687 816.86703125 588.04703125 816.6246875 586.3125 816.375 C583.569375 815.92125 580.82625 815.4675 578 815 C575.793125 814.505 573.58625 814.01 571.3125 813.5 C568.1878125 812.7575 568.1878125 812.7575 565 812 C562.1125 811.505 559.225 811.01 556.25 810.5 C553.5275 810.005 550.805 809.51 548 809 C545.03 808.01 542.06 807.02 539 806 C536.03 805.67 533.06 805.34 530 805 C528.68 804.34 527.36 803.68 526 803 C523.95039062 802.72285156 521.90078125 802.44570312 519.7890625 802.16015625 C517.21867188 801.77730469 514.64828125 801.39445312 512 801 C508.02066406 799.97712891 508.02066406 799.97712891 503.9609375 798.93359375 C501.12757813 798.10988281 498.29421875 797.28617188 495.375 796.4375 C492.31863281 795.54675781 489.26226563 794.65601563 486.11328125 793.73828125 C483.10589844 792.83464844 480.09851563 791.93101562 477 791 C472.99939453 789.75283203 472.99939453 789.75283203 468.91796875 788.48046875 C466.49066406 787.70316406 464.06335938 786.92585938 461.5625 786.125 C459.41878906 785.42632813 457.27507812 784.72765625 455.06640625 784.0078125 C453.06449219 783.34523438 451.06257813 782.68265625 449 782 C447.03675781 781.36578125 445.07351563 780.7315625 443.05078125 780.078125 C441.05402344 779.39234375 439.05726563 778.7065625 437 778 C434.82664062 777.14664063 432.65328125 776.29328125 430.4140625 775.4140625 C427.05347656 774.03347656 427.05347656 774.03347656 423.625 772.625 C421.2634375 771.65433594 418.901875 770.68367188 416.46875 769.68359375 C414.3340625 768.79800781 412.199375 767.91242187 410 767 C407.40125 765.906875 404.8025 764.81375 402.125 763.6875 C400.10375 762.800625 398.0825 761.91375 396 761 C392.8753125 759.576875 392.8753125 759.576875 389.6875 758.125 C387.480625 757.09375 385.27375 756.0625 383 755 C380.339375 753.741875 377.67875 752.48375 374.9375 751.1875 C371.988125 749.805625 369.03875 748.42375 366 747 C364.37191406 746.27554688 362.74382812 745.55109375 361.06640625 744.8046875 C359.39449219 744.06476562 357.72257812 743.32484375 356 742.5625 C353.48632812 741.43328125 353.48632812 741.43328125 350.921875 740.28125 C349.29765625 739.5284375 347.6734375 738.775625 346 738 C341.66875 735.8034375 341.66875 735.8034375 337.25 733.5625 C334.5275 732.056875 331.805 730.55125 329 729 C326.298125 727.30875 323.59625 725.6175 320.8125 723.875 C318.234375 722.26625 315.65625 720.6575 313 719 C310.64875 717.80375 308.2975 716.6075 305.875 715.375 C303.60625 714.26125 301.3375 713.1475 299 712 C296.628125 710.68 294.25625 709.36 291.8125 708 C289.564375 706.68 287.31625 705.36 285 704 C283.06125 702.783125 281.1225 701.56625 279.125 700.3125 C277.43375 699.219375 275.7425 698.12625 274 697 C271.36 695.35 268.72 693.7 266 692 C263.339375 690.6078125 263.339375 690.6078125 260.625 689.1875 C257.840625 687.6096875 257.840625 687.6096875 255 686 C253.22625 684.63875 251.4525 683.2775 249.625 681.875 C248.09875 680.59625 246.5725 679.3175 245 678 C243.35 676.68 241.7 675.36 240 674 C240 673.34 240 672.68 240 672 C238.68 671.34 237.36 670.68 236 670 C233.36 668.02 230.72 666.04 228 664 C225.751875 662.4325 223.50375 660.865 221.1875 659.25 C218.815625 657.5175 216.44375 655.785 214 654 C212.185 652.370625 210.37 650.74125 208.5 649.0625 C206.685 647.391875 204.87 645.72125 203 644 C200.751875 642.22625 198.50375 640.4525 196.1875 638.625 C193.815625 636.76875 191.44375 634.9125 189 633 C186.6075 630.97875 184.215 628.9575 181.75 626.875 C179.5225 624.93625 177.295 622.9975 175 621 C173.22625 619.39125 171.4525 617.7825 169.625 616.125 C168.09875 614.76375 166.5725 613.4025 165 612 C162.36 610.02 159.72 608.04 157 606 C157 605.34 157 604.68 157 604 C155.68 603.34 154.36 602.68 153 602 C150.69 599.69 148.38 597.38 146 595 C144.4325 593.7625 142.865 592.525 141.25 591.25 C139.5175 589.8475 137.785 588.445 136 587 C134.081875 585.14375 132.16375 583.2875 130.1875 581.375 C128.475625 579.60125 126.76375 577.8275 125 576 C122.525 573.03 122.525 573.03 120 570 C116.535 567.03 116.535 567.03 113 564 C111.95199219 562.71867187 110.90398437 561.43734375 109.82421875 560.1171875 C108.78910156 558.71726562 107.75398438 557.31734375 106.6875 555.875 C105.56859375 554.38097656 104.4496875 552.88695312 103.296875 551.34765625 C102.20890625 549.91292969 101.1209375 548.47820313 100 547 C98.164375 544.793125 96.32875 542.58625 94.4375 540.3125 C92.973125 538.559375 91.50875 536.80625 90 535 C88.68 533.02 87.36 531.04 86 529 C84.02 526.525 84.02 526.525 82 524 C79.958125 520.1328125 79.958125 520.1328125 77.875 516.1875 C77.08867188 514.67671875 76.30234375 513.1659375 75.4921875 511.609375 C74.66976562 510.08828125 73.84734375 508.5671875 73 507 C71.35 504.339375 69.7 501.67875 68 498.9375 C66.35 496.318125 64.7 493.69875 63 491 C61.55625 488.545625 60.1125 486.09125 58.625 483.5625 C57.09875 480.736875 55.5725 477.91125 54 475 C53.07316406 473.14632813 52.14632812 471.29265625 51.19140625 469.3828125 C50.20011719 467.33835937 49.20882812 465.29390625 48.1875 463.1875 C47.17945312 461.06441406 46.17140625 458.94132812 45.1328125 456.75390625 C44.09898438 454.52511719 43.06515625 452.29632812 42 450 C40.38738281 446.42478516 40.38738281 446.42478516 38.7421875 442.77734375 C37.69289062 440.41707031 36.64359375 438.05679687 35.5625 435.625 C34.61503906 433.47226563 33.66757813 431.31953125 32.69140625 429.1015625 C31.80324219 427.08804687 30.91507813 425.07453125 30 423 C29.13375 421.1128125 28.2675 419.225625 27.375 417.28125 C26.59125 415.5384375 25.8075 413.795625 25 412 C23.824375 408.98875 22.64875 405.9775 21.4375 402.875 C20.839375 401.23402344 20.24125 399.59304688 19.625 397.90234375 C19.08875 396.28457031 18.5525 394.66679688 18 393 C16.9790625 388.7615625 16.9790625 388.7615625 15.9375 384.4375 C14.9784375 380.2609375 14.9784375 380.2609375 14 376 C13.030625 373.03 12.06125 370.06 11.0625 367 C10.051875 364.03 9.04125 361.06 8 358 C7.13375 355.1125 6.2675 352.225 5.375 349.25 C4.59125 346.5275 3.8075 343.805 3 341 C2.29875 338.586875 1.5975 336.17375 0.875 333.6875 C0.25625 331.480625 -0.3625 329.27375 -1 327 C-1.48726562 325.14890625 -1.97453125 323.2978125 -2.4765625 321.390625 C-2.97929688 319.28171875 -3.48203125 317.1728125 -4 315 C-4.37640625 312.96972656 -4.7528125 310.93945312 -5.140625 308.84765625 C-5.50671875 306.60855469 -5.8728125 304.36945313 -6.25 302.0625 C-6.67539062 299.44441406 -7.10078125 296.82632812 -7.5390625 294.12890625 C-8.02117188 291.11636719 -8.50328125 288.10382813 -9 285 C-9.28456055 283.25058105 -9.56912109 281.50116211 -9.86230469 279.69873047 C-10.16297852 277.84779785 -10.46365234 275.99686523 -10.7734375 274.08984375 C-11.07846191 272.19161865 -11.38348633 270.29339355 -11.69775391 268.33764648 C-12.00374512 266.41122314 -12.30973633 264.4847998 -12.625 262.5 C-13.07818604 259.60939819 -13.07818604 259.60939819 -13.54052734 256.66040039 C-13.83137207 254.76153076 -14.1222168 252.86266113 -14.421875 250.90625 C-14.69708984 249.05515625 -14.97230469 247.2040625 -15.25585938 245.296875 C-15.50142578 243.54890625 -15.74699219 241.8009375 -16 240 C-16.35578125 236.9990625 -16.7115625 233.998125 -17.078125 230.90625 C-17.34109375 228.2971875 -17.6040625 225.688125 -17.875 223 C-18.07867188 220.7725 -18.28234375 218.545 -18.4921875 216.25 C-18.65976562 214.1875 -18.82734375 212.125 -19 210 C-19.26478149 207.06988037 -19.26478149 207.06988037 -19.53491211 204.08056641 C-19.68839111 201.74397949 -19.84187012 199.40739258 -20 197 C-20.01764404 194.54095215 -20.03528809 192.0819043 -20.0534668 189.54833984 C-20.00186401 185.54507568 -20.00186401 185.54507568 -19.94921875 181.4609375 C-19.90990234 178.52960938 -19.87058594 175.59828125 -19.83007812 172.578125 C-19.78302734 169.54109375 -19.73597656 166.5040625 -19.6875 163.375 C-19.65205078 160.33023438 -19.61660156 157.28546875 -19.58007812 154.1484375 C-19.53689453 151.2196875 -19.49371094 148.2909375 -19.44921875 145.2734375 C-19.41143311 142.60685059 -19.37364746 139.94026367 -19.3347168 137.19287109 C-19.22426025 134.81922363 -19.11380371 132.44557617 -19 130 C-18.67016113 128.0418335 -18.34032227 126.08366699 -18.00048828 124.06616211 C-17.67032715 122.39432861 -17.34016602 120.72249512 -17 119 C-16.84917969 116.25042969 -16.69835937 113.50085938 -16.54296875 110.66796875 C-16.42566406 107.53941406 -16.30835938 104.41085937 -16.1875 101.1875 C-16.11257324 99.51582764 -16.03764648 97.84415527 -15.96044922 96.12182617 C-15.87166504 94.42904541 -15.78288086 92.73626465 -15.69140625 90.9921875 C-15.58973145 89.30834961 -15.48805664 87.62451172 -15.38330078 85.88964844 C-15.25681152 84.27606445 -15.13032227 82.66248047 -15 81 C-14.45666016 76.79636719 -14.45666016 76.79636719 -13.90234375 72.5078125 C-13.48082031 69.96835937 -13.05929688 67.42890625 -12.625 64.8125 C-12.18542969 62.399375 -11.74585938 59.98625 -11.29296875 57.5 C-10.86628906 55.355 -10.43960937 53.21 -10 51 C-9.319375 47.803125 -8.63875 44.60625 -7.9375 41.3125 C-7.298125 38.239375 -6.65875 35.16625 -6 32 C-5.64808594 29.69644531 -5.29617187 27.39289062 -4.93359375 25.01953125 C-4.58425781 22.57933594 -4.23492187 20.13914062 -3.875 17.625 C-3.56304687 15.34851563 -3.25109375 13.07203125 -2.9296875 10.7265625 C-2.62289062 8.83679688 -2.31609375 6.94703125 -2 5 C-1.34 3.35 -0.68 1.7 0 0 Z " transform="translate(40,815)" style="fill: #FFFFFF;"/><path d="M0 0 C3.650625 -0.185625 3.650625 -0.185625 7.375 -0.375 C11.149375 -0.189375 11.149375 -0.189375 15 0 C17.0625 0.37125 19.125 0.7425 21.25 1.125 C23.1475 1.74375 25.045 2.3625 27 3 C28.85625 3.845625 30.7125 4.69125 32.625 5.5625 C34.39875 6.696875 36.1725 7.83125 38 9 C39.629375 10.4025 41.25875 11.805 42.9375 13.25 C44.608125 15.1475 46.27875 17.045 48 19 C48.98226562 20.39476562 49.96453125 21.78953125 50.9765625 23.2265625 C51.99492188 24.76054688 53.01328125 26.29453125 54.0625 27.875 C55.57650391 30.21658203 55.57650391 30.21658203 57.12109375 32.60546875 C58.54615234 34.78076172 58.54615234 34.78076172 60 37 C61.52625 39.041875 63.0525 41.08375 64.625 43.1875 C66.06875 45.105625 67.5125 47.02375 69 49 C70.670625 51.51625 72.34125 54.0325 74.0625 56.625 C75.691875 59.05875 77.32125 61.4925 79 64 C81.1346875 66.784375 81.1346875 66.784375 83.3125 69.625 C84.529375 71.06875 85.74625 72.5125 87 74 C88.65 75.65 90.3 77.3 92 79 C93.98 81.31 95.96 83.62 98 86 C99.11375 87.27875 100.2275 88.5575 101.375 89.875 C102.57125 91.23625 103.7675 92.5975 105 94 C106.134375 95.423125 107.26875 96.84625 108.4375 98.3125 C109.943125 99.859375 111.44875 101.40625 113 103 C115.619375 104.876875 118.23875 106.75375 120.9375 108.6875 C123.598125 110.440625 126.25875 112.19375 129 114 C130.588125 115.051875 132.17625 116.10375 133.8125 117.1875 C135.194375 118.115625 136.57625 119.04375 138 120 C139.794375 121.32 141.58875 122.64 143.4375 124 C145.273125 125.32 147.10875 126.64 149 128 C150.629375 129.010625 152.25875 130.02125 153.9375 131.0625 C155.608125 132.031875 157.27875 133.00125 159 134 C161.7225 135.7015625 161.7225 135.7015625 164.5 137.4375 C166.645 138.613125 168.79 139.78875 171 141 C174.0525 142.216875 177.105 143.43375 180.25 144.6875 C183.1375 145.780625 186.025 146.87375 189 148 C192.96 149.98 192.96 149.98 197 152 C198.711875 152.64839844 200.42375 153.29679687 202.1875 153.96484375 C205.0646875 154.94130859 205.0646875 154.94130859 208 155.9375 C211.18849609 156.97777344 211.18849609 156.97777344 214.44140625 158.0390625 C216.60574219 158.68617188 218.77007813 159.33328125 221 160 C222.98902344 160.50273438 224.97804688 161.00546875 227.02734375 161.5234375 C228.97769531 161.94882813 230.92804688 162.37421875 232.9375 162.8125 C234.92136719 163.1940625 236.90523437 163.575625 238.94921875 163.96875 C240.94597656 164.3090625 242.94273437 164.649375 245 165 C247.00707031 165.3196875 249.01414062 165.639375 251.08203125 165.96875 C253.11746094 166.2471875 255.15289063 166.525625 257.25 166.8125 C260.35535156 167.15087891 260.35535156 167.15087891 263.5234375 167.49609375 C265.66070313 167.66238281 267.79796875 167.82867188 270 168 C272.26101563 168.09410156 274.52203125 168.18820312 276.8515625 168.28515625 C279.16929687 168.31480469 281.48703125 168.34445312 283.875 168.375 C286.20949219 168.3440625 288.54398438 168.313125 290.94921875 168.28125 C293.27597656 168.1884375 295.60273437 168.095625 298 168 C301.41279297 167.76796875 301.41279297 167.76796875 304.89453125 167.53125 C307.13621094 167.3146875 309.37789062 167.098125 311.6875 166.875 C313.894375 166.60171875 316.10125 166.3284375 318.375 166.046875 C320.56125 165.70140625 322.7475 165.3559375 325 165 C327.206875 164.55140625 329.41375 164.1028125 331.6875 163.640625 C333.8325 163.14046875 335.9775 162.6403125 338.1875 162.125 C340.21519531 161.609375 342.24289062 161.09375 344.33203125 160.5625 C347.13767578 159.7890625 347.13767578 159.7890625 350 159 C353.09375 158.05125 356.1875 157.1025 359.375 156.125 C361.56125 155.42375 363.7475 154.7225 366 154 C366.99 154 367.98 154 369 154 C369.99 155.98 370.98 157.96 372 160 C372.83273437 162.578125 373.66546875 165.15625 374.5234375 167.8125 C375.46445312 170.844375 376.40546875 173.87625 377.375 177 C378.77878906 181.5478125 378.77878906 181.5478125 380.2109375 186.1875 C381.13132812 188.765625 382.05171875 191.34375 383 194 C384.65 195.98 386.3 197.96 388 200 C388.99 200.33 389.98 200.66 391 201 C393.000625 201.061875 395.00125 201.12375 397.0625 201.1875 C399.351875 201.125625 401.64125 201.06375 404 201 C405.753125 200.67 407.50625 200.34 409.3125 200 C410.859375 199.67 412.40625 199.34 414 199 C416.64 199 419.28 199 422 199 C422.0928125 201.165625 422.0928125 201.165625 422.1875 203.375 C421.795625 205.23125 421.40375 207.0875 421 209 C420.67 210.629375 420.34 212.25875 420 213.9375 C419.34 215.608125 418.68 217.27875 418 219 C416.68 220.835625 415.36 222.67125 414 224.5625 C412.35 226.356875 410.7 228.15125 409 230 C407.288125 231.546875 405.57625 233.09375 403.8125 234.6875 C401.894375 236.110625 399.97625 237.53375 398 239 C395.669375 240.423125 393.33875 241.84625 390.9375 243.3125 C388.648125 244.529375 386.35875 245.74625 384 247 C382.453125 247.721875 380.90625 248.44375 379.3125 249.1875 C377.559375 249.785625 375.80625 250.38375 374 251 C371.009375 251.825 368.01875 252.65 364.9375 253.5 C363.27332031 253.92152344 361.60914063 254.34304688 359.89453125 254.77734375 C358.27933594 255.18082031 356.66414063 255.58429688 355 256 C352.40125 256.680625 349.8025 257.36125 347.125 258.0625 C344.11375 258.701875 341.1025 259.34125 338 260 C335.27363281 260.56267578 335.27363281 260.56267578 332.4921875 261.13671875 C329.27855469 261.68779297 329.27855469 261.68779297 326 262.25 C323.53789063 262.57355469 321.07578125 262.89710938 318.5390625 263.23046875 C315.39117188 263.48441406 312.24328125 263.73835938 309 264 C305.80328613 264.1249585 305.80328613 264.1249585 302.54199219 264.25244141 C300.18461914 264.30964355 297.82724609 264.3668457 295.3984375 264.42578125 C292.93375 264.45575195 290.4690625 264.48572266 287.9296875 264.51660156 C285.43664062 264.53174805 282.94359375 264.54689453 280.375 264.5625 C276.80945313 264.60262207 276.80945313 264.60262207 273.171875 264.64355469 C270.83351563 264.6387207 268.49515625 264.63388672 266.0859375 264.62890625 C263.76892822 264.57532959 261.45191895 264.52175293 259.06469727 264.46655273 C256.73334717 264.31259033 254.40199707 264.15862793 252 264 C248.32411743 263.47611694 248.32411743 263.47611694 244.57397461 262.94165039 C242.1944458 262.50973389 239.81491699 262.07781738 237.36328125 261.6328125 C234.16572144 260.99110107 234.16572144 260.99110107 230.90356445 260.33642578 C228.95538818 259.89540527 227.00721191 259.45438477 225 259 C223.22520264 258.54995605 221.45040527 258.09991211 219.62182617 257.63623047 C218.03474854 257.19939941 216.4476709 256.76256836 214.8125 256.3125 C210.9453125 255.1678125 210.9453125 255.1678125 207 254 C203.04 253.01 203.04 253.01 199 252 C196.525 251.401875 194.05 250.80375 191.5 250.1875 C188.695 249.465625 185.89 248.74375 183 248 C180.545625 247.319375 178.09125 246.63875 175.5625 245.9375 C172.736875 244.968125 169.91125 243.99875 167 243 C165.04191406 242.20335937 163.08382812 241.40671875 161.06640625 240.5859375 C158.94074219 239.67070313 156.81507813 238.75546875 154.625 237.8125 C152.47871094 236.84957031 150.33242188 235.88664062 148.12109375 234.89453125 C146.10113281 233.93933594 144.08117187 232.98414063 142 232 C140.38222656 231.15824219 138.76445313 230.31648438 137.09765625 229.44921875 C135.64230469 228.64097656 134.18695312 227.83273437 132.6875 227 C131.27339844 226.18789062 129.85929688 225.37578125 128.40234375 224.5390625 C126.94957031 223.70117188 125.49679687 222.86328125 124 222 C122.33066406 221.07960938 120.66132812 220.15921875 118.94140625 219.2109375 C116.37166016 217.80714844 116.37166016 217.80714844 113.75 216.375 C111.2440625 214.99634766 111.2440625 214.99634766 108.6875 213.58984375 C106.3671875 212.30787109 106.3671875 212.30787109 104 211 C101.6075 209.659375 99.215 208.31875 96.75 206.9375 C94.5225 205.638125 92.295 204.33875 90 203 C87.256875 201.329375 84.51375 199.65875 81.6875 197.9375 C79.150625 196.308125 76.61375 194.67875 74 193 C72.370625 191.7625 70.74125 190.525 69.0625 189.25 C67.721875 188.1775 66.38125 187.105 65 186 C63.576875 185.071875 62.15375 184.14375 60.6875 183.1875 C59.140625 182.135625 57.59375 181.08375 56 180 C53.999375 178.370625 51.99875 176.74125 49.9375 175.0625 C47.978125 173.391875 46.01875 171.72125 44 170 C42.700625 168.906875 41.40125 167.81375 40.0625 166.6875 C38.721875 165.470625 37.38125 164.25375 36 163 C33.834375 160.89625 31.66875 158.7925 29.4375 156.625 C27.313125 154.43875 25.18875 152.2525 23 150 C21.72125 148.411875 20.4425 146.82375 19.125 145.1875 C18.09375 143.805625 17.0625 142.42375 16 141 C14.91589844 139.76636719 13.83179688 138.53273438 12.71484375 137.26171875 C11.48894531 135.85535156 10.26304687 134.44898438 9 133 C7.90558594 131.63101562 6.81117188 130.26203125 5.68359375 128.8515625 C4.61238281 127.45679688 3.54117188 126.06203125 2.4375 124.625 C1.3134375 123.14644531 0.189375 121.66789062 -0.96875 120.14453125 C-1.9690625 118.77683594 -2.969375 117.40914062 -4 116 C-5.175625 114.123125 -6.35125 112.24625 -7.5625 110.3125 C-8.366875 108.889375 -9.17125 107.46625 -10 106 C-11.32 104.02 -12.64 102.04 -14 100 C-15.06347656 97.36451172 -15.06347656 97.36451172 -16.1484375 94.67578125 C-16.88320313 92.57589844 -17.61796875 90.47601562 -18.375 88.3125 C-19.15617188 86.01152344 -19.93734375 83.71054687 -20.7421875 81.33984375 C-21.85980469 77.70662109 -21.85980469 77.70662109 -23 74 C-23.62132812 71.54691406 -24.24265625 69.09382812 -24.8828125 66.56640625 C-25.41648437 64.19324219 -25.95015625 61.82007813 -26.5 59.375 C-26.9640625 57.19648437 -27.428125 55.01796875 -27.90625 52.7734375 C-28.2671875 50.86820313 -28.628125 48.96296875 -29 47 C-29.33 44.36 -29.66 41.72 -30 39 C-30 36.03 -30 33.06 -30 30 C-28.9171875 26.473125 -28.9171875 26.473125 -27.8125 22.875 C-26.884375 20.60625 -25.95625 18.3375 -25 16 C-23.35 13.69 -21.7 11.38 -20 9 C-18.453125 7.9275 -16.90625 6.855 -15.3125 5.75 C-13.559375 4.8425 -11.80625 3.935 -10 3 C-8.453125 2.38125 -6.90625 1.7625 -5.3125 1.125 C-3.559375 0.75375 -1.80625 0.3825 0 0 Z " transform="translate(536,923)" style="fill: #FFFFFF;"/><path d="M0 0 C1.93875 -0.144375 3.8775 -0.28875 5.875 -0.4375 C8.906875 -0.2209375 8.906875 -0.2209375 12 0 C14.50207031 0.26876953 14.50207031 0.26876953 17.0546875 0.54296875 C18.93414063 0.77628906 20.81359375 1.00960937 22.75 1.25 C24.66296875 1.53617188 26.5759375 1.82234375 28.546875 2.1171875 C30.34640625 2.40851562 32.1459375 2.69984375 34 3 C36.64 3.45375 39.28 3.9075 42 4.375 C44.64 5.24125 47.28 6.1075 50 7 C51.82273437 7.94617188 53.64546875 8.89234375 55.5234375 9.8671875 C57.45445312 10.98351562 59.38546875 12.09984375 61.375 13.25 C63.24027344 14.40371094 65.10554687 15.55742188 67.02734375 16.74609375 C68.66832031 17.81988281 70.30929687 18.89367187 72 20 C74.9390625 22.1346875 74.9390625 22.1346875 77.9375 24.3125 C79.278125 25.529375 80.61875 26.74625 82 28 C83.7325 29.7325 83.7325 29.7325 85.5 31.5 C86.655 32.985 87.81 34.47 89 36 C90.629375 38.475 92.25875 40.95 93.9375 43.5 C95.608125 46.305 97.27875 49.11 99 52 C101.165625 56.021875 101.165625 56.021875 103.375 60.125 C104.57125 62.72375 105.7675 65.3225 107 68 C107.804375 70.5575 108.60875 73.115 109.4375 75.75 C109.953125 77.8125 110.46875 79.875 111 82 C111.33 83.32 111.66 84.64 112 86 C112.185625 88.145 112.37125 90.29 112.5625 92.5 C112.7790625 96.2125 112.7790625 96.2125 113 100 C113.061875 102.000625 113.12375 104.00125 113.1875 106.0625 C113.125625 108.021875 113.06375 109.98125 113 112 C112.7525 114.145 112.505 116.29 112.25 118.5 C111.63125 121.7175 111.63125 121.7175 111 125 C110.46375 126.918125 109.9275 128.83625 109.375 130.8125 C108.59125 132.854375 107.8075 134.89625 107 137 C105.081875 141.0528125 105.081875 141.0528125 103.125 145.1875 C101.76375 147.765625 100.4025 150.34375 99 153 C98.030625 154.60875 97.06125 156.2175 96.0625 157.875 C95.051875 159.23625 94.04125 160.5975 93 162 C91.5975 163.65 90.195 165.3 88.75 167 C87.1825 168.65 85.615 170.3 84 172 C82.47375 173.505625 80.9475 175.01125 79.375 176.5625 C77.60125 178.026875 75.8275 179.49125 74 181 C71.545625 182.588125 69.09125 184.17625 66.5625 185.8125 C64.066875 187.194375 61.57125 188.57625 59 190 C57.22625 190.7425 55.4525 191.485 53.625 192.25 C51.76875 192.8275 49.9125 193.405 48 194 C45.298125 194.86625 42.59625 195.7325 39.8125 196.625 C36.904375 197.40875 33.99625 198.1925 31 199 C28.215625 199.433125 25.43125 199.86625 22.5625 200.3125 C18.8190625 200.6528125 18.8190625 200.6528125 15 201 C11.7 201 8.4 201 5 201 C1.9371875 200.62875 1.9371875 200.62875 -1.1875 200.25 C-3.435625 199.8375 -5.68375 199.425 -8 199 C-10.495625 198.401875 -12.99125 197.80375 -15.5625 197.1875 C-18.016875 196.465625 -20.47125 195.74375 -23 195 C-24.93875 194.278125 -26.8775 193.55625 -28.875 192.8125 C-31.906875 191.4203125 -31.906875 191.4203125 -35 190 C-39.269375 187.8653125 -39.269375 187.8653125 -43.625 185.6875 C-46.38875 184.140625 -49.1525 182.59375 -52 181 C-53.794375 179.68 -55.58875 178.36 -57.4375 177 C-58.943125 175.68 -60.44875 174.36 -62 173 C-63.60875 171.700625 -65.2175 170.40125 -66.875 169.0625 C-69.411875 166.5565625 -69.411875 166.5565625 -72 164 C-73.01835937 162.73800781 -74.03671875 161.47601562 -75.0859375 160.17578125 C-76.65214844 158.04689453 -76.65214844 158.04689453 -78.25 155.875 C-79.25804687 154.38742187 -80.26609375 152.89984375 -81.3046875 151.3671875 C-82.19414062 149.92601562 -83.08359375 148.48484375 -84 147 C-85.670625 143.535 -85.670625 143.535 -87.375 140 C-88.24125 137.36 -89.1075 134.72 -90 132 C-90.56847656 130.01871094 -91.13695312 128.03742188 -91.72265625 125.99609375 C-92.28855469 123.83175781 -92.85445313 121.66742187 -93.4375 119.4375 C-93.92863281 117.2821875 -94.41976563 115.126875 -94.92578125 112.90625 C-95.28027344 110.9571875 -95.63476562 109.008125 -96 107 C-96.04125 104.504375 -96.0825 102.00875 -96.125 99.4375 C-95.75375 97.313125 -95.3825 95.18875 -95 93 C-94.4225 90.380625 -93.845 87.76125 -93.25 85.0625 C-92.13625 81.0715625 -92.13625 81.0715625 -91 77 C-90.2575 74.504375 -89.515 72.00875 -88.75 69.4375 C-87.8425 66.983125 -86.935 64.52875 -86 62 C-84.741875 59.421875 -83.48375 56.84375 -82.1875 54.1875 C-80.805625 51.815625 -79.42375 49.44375 -78 47 C-76.80375 45.329375 -75.6075 43.65875 -74.375 41.9375 C-72.93125 40.308125 -71.4875 38.67875 -70 37 C-67.855 34.710625 -65.71 32.42125 -63.5 30.0625 C-62.28570312 28.87527344 -61.07140625 27.68804688 -59.8203125 26.46484375 C-58.55960937 25.32144531 -57.29890625 24.17804687 -56 23 C-52.225625 20.091875 -52.225625 20.091875 -48.375 17.125 C-44.229375 14.588125 -44.229375 14.588125 -40 12 C-38.42992187 11.23558594 -36.85984375 10.47117187 -35.2421875 9.68359375 C-33.59476562 8.98363281 -31.94734375 8.28367187 -30.25 7.5625 C-28.57421875 6.93472656 -26.8984375 6.30695312 -25.171875 5.66015625 C-23.46515625 5.11230469 -21.7584375 4.56445312 -20 4 C-18.25203125 3.54496094 -16.5040625 3.08992187 -14.703125 2.62109375 C-12.98609375 2.25113281 -11.2690625 1.88117187 -9.5 1.5 C-6.365 1.005 -3.23 0.51 0 0 Z M7 74 C3.596875 74.7734375 3.596875 74.7734375 0.125 75.5625 C-1.89625 76.366875 -3.9175 77.17125 -6 78 C-8.64 79.98 -11.28 81.96 -14 84 C-15.98 86.31 -17.96 88.62 -20 91 C-21.32 93.31 -22.64 95.62 -24 98 C-24.33 99.32 -24.66 100.64 -25 102 C-25.144375 104.64 -25.28875 107.28 -25.4375 110 C-25.293125 112.97 -25.14875 115.94 -25 119 C-24.195625 121.145 -23.39125 123.29 -22.5625 125.5 C-21.386875 127.315 -20.21125 129.13 -19 131 C-17.02 133.413125 -17.02 133.413125 -15 135.875 C-13.35 137.23625 -11.7 138.5975 -10 140 C-7.628125 141.134375 -5.25625 142.26875 -2.8125 143.4375 C-0.564375 144.283125 1.68375 145.12875 4 146 C5.98 146.66 7.96 147.32 10 148 C12.475 147.505 12.475 147.505 15 147 C17.3203125 146.4121875 17.3203125 146.4121875 19.6875 145.8125 C21.440625 145.214375 23.19375 144.61625 25 144 C26.711875 143.113125 28.42375 142.22625 30.1875 141.3125 C31.775625 140.219375 33.36375 139.12625 35 138 C36.258125 136.741875 37.51625 135.48375 38.8125 134.1875 C39.864375 132.805625 40.91625 131.42375 42 130 C42.94875 128.453125 43.8975 126.90625 44.875 125.3125 C45.926875 123.1778125 45.926875 123.1778125 47 121 C47.33 119.35 47.66 117.7 48 116 C48.12375 113.999375 48.2475 111.99875 48.375 109.9375 C48.25125 107.648125 48.1275 105.35875 48 103 C47.29875 100.89625 46.5975 98.7925 45.875 96.625 C44.92625 94.76875 43.9775 92.9125 43 91 C41.02 88.69 39.04 86.38 37 84 C34.69 82.35 32.38 80.7 30 79 C25.545 77.02 25.545 77.02 21 75 C17.65875 74.505 17.65875 74.505 14.25 74 C11.8575 74 9.465 74 7 74 Z " transform="translate(502,597)" style="fill: #FFFFFF;"/></svg>